<svg xmlns="http://www.w3.org/2000/svg">
<defs>
<font
       horiz-adv-x="400"
       id="font1"
       inkscape:label="mangoCAD"
       horiz-origin-x="0"
       horiz-origin-y="0"
       vert-origin-x="512"
       vert-origin-y="768"
       vert-adv-y="1024">
      <font-face
         units-per-em="1000"
         ascent="750"
         cap-height="600"
         x-height="400"
         descent="200"
         id="font-face1"
         font-family="Mango Classic" />
      <missing-glyph
         d="m 191.54102,803.08398 c -7.1498,0.19821 -11.27576,-0.17451 -11.58594,-0.20312 H 13.333984 A 2.8803251,2.8803251 0 0 1 10.453125,800 2.8803251,2.8803251 0 0 1 13.333984,797.11914 H 180 a 2.8806131,2.8806131 0 0 1 0.27539,0.0137 c 0,0 67.58933,6.4663 119.11328,-45.27148 51.56093,-51.77491 46.58203,-118.3125 46.58203,-118.3125 a 2.8806131,2.8806131 0 0 1 -0.008,-0.21485 V 366.66605 a 2.8806131,2.8806131 0 0 1 0.006,-0.17579 c 0,0 4.40768,-76.54828 -39.46484,-122.7539 C 262.75837,197.66445 180.125,200.84375 180.125,200.84375 a 2.8806131,2.8806131 0 0 1 -0.0898,0.002 l -166.666059,2.03511 a 2.8803251,2.8803251 0 0 1 -2.916016,-2.8457 2.8803251,2.8803251 0 0 1 2.845703,-2.91602 L 179.875,195.08789 c 0,0 84.50905,-4.07801 130.80664,44.68164 46.17059,48.6259 41.03711,127.07422 41.03711,127.07422 l 0.004,-0.17773 v 266.66796 l -0.008,-0.21679 c 0,0 5.19183,69.15086 -48.24414,122.80859 -40.1047,40.27114 -89.65907,46.54081 -111.92968,47.1582 z"
         id="missing-glyph1" />
      <glyph
         glyph-name="Space"
         unicode=" "
         id="glyph241"
         horiz-adv-x="260.00" />
      <glyph
         glyph-name="Exclamation"
         unicode="!"
         id="glyph242"
         d="m 33.333984,801.22266 a 1.889765,1.889765 0 0 1 -1.890625,-1.88868 v -400 a 1.889765,1.889765 0 0 1 1.890625,-1.89062 1.889765,1.889765 0 0 1 1.888672,1.89062 v 400 a 1.889765,1.889765 0 0 1 -1.888672,1.88868 z m -20,-558.66602 a 1.889954,1.889954 0 0 1 -1.890625,-1.89062 v -40 a 1.889954,1.889954 0 0 1 1.890625,-1.88868 h 40 a 1.889954,1.889954 0 0 1 1.888672,1.88868 v 40 a 1.889954,1.889954 0 0 1 -1.888672,1.89062 z m 1.888672,-3.7793 h 36.220703 v -36.2207 H 15.222656 Z"
         horiz-adv-x="250.00" />
      <glyph
         glyph-name="Double Quote"
         unicode="&quot;"
         id="glyph245"
         d="M 13.333984,934.66602 A 1.333335,1.333335 0 0 1 12,933.33398 V 800 A 1.333335,1.333335 0 0 1 13.333984,798.66602 1.333335,1.333335 0 0 1 14.666016,800 v 133.33398 a 1.333335,1.333335 0 0 1 -1.332032,1.33204 z m 166.666016,0 a 1.333335,1.333335 0 0 1 -1.33398,-1.33204 V 800 A 1.333335,1.333335 0 0 1 180,798.66602 1.333335,1.333335 0 0 1 181.33398,800 V 933.33398 A 1.333335,1.333335 0 0 1 180,934.66602 Z"
         horiz-adv-x="280.00" />
      <glyph
         glyph-name="Hash"
         unicode="#"
         id="glyph248"
         d="M 113.33398,801.33398 A 1.333335,1.333335 0 0 1 112,800 V 601.33398 H 13.333984 A 1.333335,1.333335 0 0 1 12,600 1.333335,1.333335 0 0 1 13.333984,598.66602 H 112 V 401.33398 H 13.333984 A 1.333335,1.333335 0 0 1 12,400 1.333335,1.333335 0 0 1 13.333984,398.66602 H 112 V 200 a 1.333335,1.333335 0 0 1 1.33398,-1.33398 A 1.333335,1.333335 0 0 1 114.66602,200 V 398.66602 H 312 V 200 a 1.333335,1.333335 0 0 1 1.33398,-1.33398 1.333335,1.333335 0 0 1 1.33204,1.33398 v 198.66602 h 98.66796 a 1.333335,1.333335 0 0 1 1.33204,1.33398 1.333335,1.333335 0 0 1 -1.33204,1.33398 h -98.66796 v 197.33204 h 98.66796 a 1.333335,1.333335 0 0 1 1.33204,1.33398 1.333335,1.333335 0 0 1 -1.33204,1.33398 H 314.66602 V 800 a 1.333335,1.333335 0 0 1 -1.33204,1.33398 A 1.333335,1.333335 0 0 1 312,800 V 601.33398 H 114.66602 V 800 a 1.333335,1.333335 0 0 1 -1.33204,1.33398 z m 1.33204,-202.66796 H 312 V 401.33398 H 114.66602 Z"
         horiz-adv-x="500.00" />
      <glyph
         glyph-name="Dollar"
         unicode="$"
         id="glyph253"
         d="M 146.66602,801.33398 A 1.333335,1.333335 0 0 1 145.33398,800 v -68.98828 c -1.96466,0.14694 -3.93452,0.34572 -5.88671,0.38476 -51.821342,1.03643 -109.765629,-39.58262 -109.765629,-104.57617 0,-64.9864 57.515625,-94.10742 57.515625,-94.10742 l -0.05078,0.0254 58.187496,-32.58398 V 268.74805 C 118.67956,273.59051 90.23855,286.84984 66.894531,300.18164 37.609002,316.90663 16.353516,333.625 16.353516,333.625 a 1.333335,1.333335 0 0 1 -1.873047,-0.22266 1.333335,1.333335 0 0 1 0.222656,-1.87304 c 0,0 21.399545,-16.83505 50.867187,-33.66407 23.627019,-13.49341 52.436078,-27.01087 79.763668,-31.84765 V 200 a 1.333335,1.333335 0 0 1 1.33204,-1.33398 A 1.333335,1.333335 0 0 1 148,200 v 65.58203 c 5.84196,-0.91414 11.61117,-1.44531 17.23047,-1.44531 23.18423,0 49.268,8.56286 69.62891,25.92773 20.36091,17.36489 34.94726,43.59614 34.94726,78.64844 0,70.02884 -52.40039,94.13086 -52.40039,94.13086 l 0.0977,-0.0488 L 148,501.7168 v 226.44726 c 48.10908,-4.87603 99.05859,-40.48828 99.05859,-40.48828 a 1.333335,1.333335 0 0 1 1.85743,0.32422 1.333335,1.333335 0 0 1 -0.32422,1.85742 c 0,0 -51.24425,36.14171 -100.5918,40.98047 V 800 a 1.333335,1.333335 0 0 1 -1.33398,1.33398 z m -7.27344,-72.60351 c 1.96695,-0.0393 3.95751,-0.23718 5.9414,-0.39063 V 503.20898 l -56.884761,31.85547 a 1.3334684,1.3334684 0 0 1 -0.04883,0.0274 c 0,0 -56.052735,28.31452 -56.052735,91.72851 0,63.40684 56.656324,102.91793 107.044924,101.91016 z M 148,498.66016 216.20117,460.46875 a 1.3334684,1.3334684 0 0 1 0.0977,-0.0508 c 0,0 50.84179,-22.99922 50.84179,-91.70508 0,-34.31506 -14.17853,-59.7063 -34.01171,-76.62109 -19.83318,-16.91481 -45.37297,-25.28907 -67.89844,-25.28907 -5.59277,0 -11.36531,0.54055 -17.23047,1.48438 z"
         horiz-adv-x="380.00" />
      <glyph
         glyph-name="Percent"
         unicode="%"
         id="glyph256"
         d="m 546.58789,801.33203 a 1.333335,1.333335 0 0 1 -0.91797,-0.44531 l -533.333982,-600 a 1.333335,1.333335 0 0 1 0.111328,-1.88281 1.333335,1.333335 0 0 1 1.882812,0.10937 l 533.333982,600 a 1.333335,1.333335 0 0 1 -0.11133,1.88281 1.333335,1.333335 0 0 1 -0.96484,0.33594 z m -421.63672,-0.47851 c -56.087515,0 -101.583982,-45.49646 -101.583982,-101.58399 0,-56.08751 45.496467,-101.58398 101.583982,-101.58398 56.08753,0 101.58399,45.49647 101.58399,101.58398 0,56.08753 -45.49646,101.58399 -101.58399,101.58399 z m 0,-2.66602 c 54.64635,0 98.91797,-44.27162 98.91797,-98.91797 0,-54.64634 -44.27162,-98.91797 -98.91797,-98.91797 -54.646342,0 -98.917967,44.27163 -98.917967,98.91797 0,54.64635 44.271625,98.91797 98.917967,98.91797 z M 444.49609,403.27344 c -56.08751,0 -101.58398,-45.49646 -101.58398,-101.58399 0,-56.08751 45.49647,-101.58398 101.58398,-101.58398 56.08753,0 101.58399,45.49647 101.58399,101.58398 0,56.08753 -45.49646,101.58399 -101.58399,101.58399 z m 0,-2.66602 c 54.64635,0 98.91797,-44.27162 98.91797,-98.91797 0,-54.64634 -44.27162,-98.91797 -98.91797,-98.91797 -54.64634,0 -98.91796,44.27163 -98.91797,98.91797 0,54.64635 44.27163,98.91797 98.91797,98.91797 z"
         horiz-adv-x="660.00" />
      <glyph
         glyph-name="Ampersand"
         unicode="&amp;"
         id="glyph259"
         d="m 150,801.33398 c -32.67916,0 -61.981469,-19.59715 -79.039063,-46.25585 C 53.903344,728.41942 49.039854,694.53011 65.511719,666 a 1.3334684,1.3334684 0 0 1 0.01172,-0.0195 L 143.45117,536.10156 33.669922,373.7207 C 14.695453,346.09073 10.029595,318.37403 15.097656,293.49023 20.166308,268.60354 34.911516,246.57603 54.5625,230.07227 93.864467,197.06474 153.03777,185.9895 194.30859,218.8125 a 1.3334684,1.3334684 0 0 1 0.0137,0.0117 l 93.51953,76.62695 57.68164,-96.13672 a 1.333335,1.333335 0 0 1 1.83008,-0.45703 1.333335,1.333335 0 0 1 0.45703,1.82813 l -57.88479,96.47463 124.25195,101.80859 a 1.333335,1.333335 0 0 1 0.1875,1.87695 1.333335,1.333335 0 0 1 -1.87695,0.18555 L 288.53906,299.4707 146.61328,536.01563 234.4375,665.91992 A 1.3334684,1.3334684 0 0 1 234.48828,666 C 267.63146,723.40566 225.54006,801.33398 150,801.33398 Z m 0,-2.66796 c 73.70293,0 114.30018,-75.66066 82.18555,-131.31446 L 145.09961,538.53906 67.822266,667.33398 C 51.921239,694.87537 56.577297,727.65061 73.207031,753.64063 89.836765,779.63064 118.38908,798.66602 150,798.66602 Z m -5.03516,-265.08789 141.49024,-235.81641 -93.82227,-76.875 C 152.56579,189.03573 94.790444,199.77023 56.277344,232.11523 37.018309,248.28982 22.639025,269.8269 17.710937,294.02344 c -4.928087,24.19653 -0.463528,51.08003 18.16211,78.19726 a 1.3334684,1.3334684 0 0 1 0.0059,0.008 z"
         horiz-adv-x="500.00" />
      <glyph
         glyph-name="Single Quote"
         unicode="'"
         id="glyph261"
         d="M 13.333984,934.66602 A 1.333335,1.333335 0 0 1 12,933.33398 V 800 A 1.333335,1.333335 0 0 1 13.333984,798.66602 1.333335,1.333335 0 0 1 14.666016,800 v 133.33398 a 1.333335,1.333335 0 0 1 -1.332032,1.33204 z"
         horiz-adv-x="120.00" />
      <glyph
         glyph-name="L. Parenthesis"
         unicode="("
         id="glyph263"
         d="M 145.74023,800.95898 C -27.041734,633.97133 -32.638309,365.22686 145.75783,199.02539 a 1.333335,1.333335 0 0 1 1.88477,0.0664 1.333335,1.333335 0 0 1 -0.0664,1.88281 c -177.327339,165.20573 -171.757707,432.05171 0.0175,598.06642 a 1.333335,1.333335 0 0 1 0.0312,1.88476 1.333335,1.333335 0 0 1 -1.88477,0.0332 z"
         horiz-adv-x="250.00" />
      <glyph
         glyph-name="R. Parenthesis"
         unicode=")"
         id="glyph265"
         d="m 16.308594,800.95898 a 1.333335,1.333335 0 0 1 -1.884766,-0.0332 1.333335,1.333335 0 0 1 0.03125,-1.88476 C 186.23033,633.02631 191.79997,366.18033 14.472658,200.97461 a 1.333335,1.333335 0 0 1 -0.06641,-1.88281 1.333335,1.333335 0 0 1 1.884766,-0.0664 c 178.396126,166.20146 172.799546,434.94593 0.01758,601.93358 z"
         horiz-adv-x="280.00" />
      <glyph
         glyph-name="Asterisk"
         unicode="*"
         id="glyph267"
         d="m 200,628 a 1.333335,1.333335 0 0 1 -1.33398,-1.33398 V 441.83008 L 13.742188,501.26953 a 1.333335,1.333335 0 0 1 -1.677735,-0.86133 1.333335,1.333335 0 0 1 0.861328,-1.67773 L 197.81055,439.30273 78.933594,280.80078 a 1.333335,1.333335 0 0 1 0.265625,-1.86719 1.333335,1.333335 0 0 1 1.867187,0.26563 L 200,437.77734 318.93359,279.19922 a 1.333335,1.333335 0 0 1 1.86719,-0.26563 1.333335,1.333335 0 0 1 0.26563,1.86719 l -118.87696,158.50195 184.88477,59.42774 a 1.333335,1.333335 0 0 1 0.86133,1.67773 1.333335,1.333335 0 0 1 -1.67774,0.86133 L 201.33398,441.83008 V 626.66602 A 1.333335,1.333335 0 0 1 200,628 Z"
         horiz-adv-x="500.00" />
      <glyph
         glyph-name="Plus"
         unicode="+"
         id="glyph273"
         d="M 213.33398,634.66602 A 1.333335,1.333335 0 0 1 212,633.33398 V 434.66602 H 13.333984 A 1.333335,1.333335 0 0 1 12,433.33398 1.333335,1.333335 0 0 1 13.333984,432 H 212 V 233.33398 A 1.333335,1.333335 0 0 1 213.33398,232 a 1.333335,1.333335 0 0 1 1.33204,1.33398 V 432 h 198.66796 a 1.333335,1.333335 0 0 1 1.33204,1.33398 1.333335,1.333335 0 0 1 -1.33204,1.33204 H 214.66602 v 198.66796 a 1.333335,1.333335 0 0 1 -1.33204,1.33204 z"
         horiz-adv-x="500.00" />
      <glyph
         glyph-name="Comma"
         unicode=","
         id="glyph276"
         d="M 33.333984,228 A 1.3334684,1.3334684 0 0 1 32,226.66602 V 200 a 1.3334684,1.3334684 0 0 1 1.333984,-1.33398 H 58.119141 L 12.074219,67.10742 a 1.333335,1.333335 0 0 1 0.818359,-1.69922 1.333335,1.333335 0 0 1 1.699219,0.81836 L 61.257812,199.55859 A 1.3334684,1.3334684 0 0 1 61.333984,200 v 26.66602 A 1.3334684,1.3334684 0 0 1 60,228 Z m 1.332032,-2.66602 h 24 v -24 h -24 z"
         horiz-adv-x="200.00" />
      <glyph
         glyph-name="Hyphen-Minus"
         unicode="-"
         id="glyph278"
         d="M 13.333984,434.66602 A 1.333335,1.333335 0 0 1 12,433.33398 1.333335,1.333335 0 0 1 13.333984,432 H 413.33398 a 1.333335,1.333335 0 0 1 1.33204,1.33398 1.333335,1.333335 0 0 1 -1.33204,1.33204 z"
         horiz-adv-x="500.00" />
      <glyph
         glyph-name="Period"
         unicode="."
         id="glyph280"
         d="M 33.333984,228 A 1.3334684,1.3334684 0 0 1 32,226.66602 V 200 a 1.3334684,1.3334684 0 0 1 1.333984,-1.33398 H 60 A 1.333335,1.333335 0 0 1 61.333984,200 v 26.66602 A 1.3334684,1.3334684 0 0 1 60,228 Z m 1.332032,-2.66602 h 24 v -24 h -24 z"
         horiz-adv-x="300.00" />
      <glyph
         glyph-name="Forward Slash"
         unicode="/"
         id="glyph282"
         d="m 280.45508,867.91992 a 1.333335,1.333335 0 0 1 -1.70899,-0.79687 L 12.080078,133.78906 a 1.333335,1.333335 0 0 1 0.796875,-1.70898 1.333335,1.333335 0 0 1 1.708985,0.79687 L 281.25391,866.21094 a 1.333335,1.333335 0 0 1 -0.79883,1.70898 z" />
      <glyph
         glyph-name="Digit Zero"
         unicode="0"
         id="glyph284"
         d="m 168.35742,799.43555 c -42.11006,0.0446 -82.637948,-21.78769 -102.859373,-65.46094 -73.5329686,-133.88632 -73.5340549,-334.15509 0,-467.94922 C 105.82134,178.82627 240.17695,178.00263 281.1543,266 c 87.06062,133.77796 87.05717,334.66711 -0.0195,468.03516 l -0.01,0.0137 c -26.86677,43.46183 -70.63505,65.34208 -112.76758,65.38672 z m -0.002,-2.66602 c 40.85432,-0.0433 83.33709,-21.08287 109.78711,-63.04687 a 1.333335,1.333335 0 0 1 -1.57031,-0.67188 L 66.716797,269.44336 C -5.1236766,402.24841 -4.7705568,600.49198 67.835938,732.69141 a 1.3334684,1.3334684 0 0 1 0.04102,0.082 c 19.781343,42.80573 59.262177,64.03976 100.478517,63.99609 z M 279.0625,732.31445 c 86.25013,-132.3614 86.19631,-332.25298 -0.17969,-464.91992 a 1.3334684,1.3334684 0 0 1 -0.0918,-0.16601 C 238.92156,181.37718 108.01892,181.96783 68.248047,266.49609 a 1.333335,1.333335 0 0 1 0.107422,0.0996 L 279.00195,731.95117 a 1.333335,1.333335 0 0 1 0.0605,0.36328 z"
         horiz-adv-x="440.00" />
      <glyph
         glyph-name="Digit One"
         unicode="1"
         id="glyph287"
         d="m 180.57812,801.20117 a 1.3334684,1.3334684 0 0 1 -1.41015,-0.16015 L 12.5,667.70703 a 1.333335,1.333335 0 0 1 -0.207031,-1.87305 1.333335,1.333335 0 0 1 1.873047,-0.20898 L 178.66602,797.22656 V 201.33398 H 13.333984 A 1.333335,1.333335 0 0 1 12,200 1.333335,1.333335 0 0 1 13.333984,198.66602 H 180 346.66602 A 1.333335,1.333335 0 0 1 348,200 a 1.333335,1.333335 0 0 1 -1.33398,1.33398 H 181.33398 V 800 a 1.3334684,1.3334684 0 0 1 -0.75586,1.20117 z"
         horiz-adv-x="440.00" />
      <glyph
         glyph-name="Digit Two"
         unicode="2"
         id="glyph290"
         d="m 180,801.33398 c -89.893063,0 -149.80086,-66.5698 -167.955078,-134.32226 a 1.333335,1.333335 0 0 1 0.943359,-1.63281 1.333335,1.333335 0 0 1 1.632813,0.94336 C 32.509104,733.08123 91.423363,798.66602 180,798.66602 c 39.82742,0 81.23413,-16.40338 112.61914,-42.80079 31.38501,-26.39741 52.71484,-62.71554 52.71484,-102.53125 0,-32.65588 -16.97983,-63.78533 -39.71093,-92.5039 -5.7e-4,-7.2e-4 -10e-4,-10e-4 -0.002,-0.002 L -0.0234375,203.55664 a 1.3334684,1.3334684 0 0 1 1.01367188,-2.19922 H 346.66602 a 1.333335,1.333335 0 0 1 1.33398,1.33203 1.333335,1.333335 0 0 1 -1.33398,1.33399 H 3.8847656 L 307.67969,559.13281 a 1.3334684,1.3334684 0 0 1 0.0332,0.0391 C 330.62512,588.11879 348,619.75517 348,653.33398 348,694.10143 326.18779,731.11619 294.33594,757.90625 262.48409,784.69631 220.55816,801.33398 180,801.33398 Z"
         horiz-adv-x="440.00" />
      <glyph
         glyph-name="Digit Three"
         unicode="3"
         id="glyph292"
         d="M 13.333984,801.33398 A 1.333335,1.333335 0 0 1 12,800 1.333335,1.333335 0 0 1 13.333984,798.66602 H 213.33398 c 43.08699,0 75.14814,-16.48345 96.51954,-41.20508 21.3714,-24.72164 32.02233,-57.74615 31.9414,-90.79102 -0.0809,-33.04487 -10.89285,-66.07289 -32.30664,-90.79687 -21.41379,-24.72398 -53.39642,-41.20703 -96.1543,-41.20703 H 180 80 A 1.3334684,1.3334684 0 0 1 80,532 h 100 c 54.84752,0 95.8138,-20.65834 123.16211,-51.63281 27.3483,-30.97447 41.05469,-72.32886 41.05469,-113.70117 0,-41.37232 -13.70639,-82.72475 -41.05469,-113.69922 C 275.8138,221.99233 234.84752,201.33398 180,201.33398 H 13.333984 A 1.333335,1.333335 0 0 1 12,200 1.333335,1.333335 0 0 1 13.333984,198.66602 H 180 c 55.51869,0 97.32731,21.00968 125.16211,52.53515 27.8348,31.52547 41.7207,73.50391 41.7207,115.46485 0,41.96093 -13.8859,83.94132 -41.7207,115.46679 C 282.91348,507.33143 251.58269,525.59762 211.61328,532 h 1.7207 c 43.44532,0 76.27804,16.85098 98.16993,42.12695 21.89188,25.27598 32.87469,58.91538 32.95703,92.53711 0.0823,33.62173 -10.7372,67.2627 -32.58985,92.54102 -21.85264,25.27832 -54.76785,42.1289 -98.53711,42.1289 z"
         horiz-adv-x="440.00" />
      <glyph
         glyph-name="Digit Four"
         unicode="4"
         id="glyph294"
         d="m 147.0332,801.28125 a 1.333335,1.333335 0 0 1 -1.64843,-0.91406 L 12.050781,333.69922 A 1.3334684,1.3334684 0 0 1 13.333984,332 H 245.33398 V 200 a 1.333335,1.333335 0 0 1 1.33204,-1.33398 A 1.333335,1.333335 0 0 1 248,200 v 132 h 98.66602 a 1.333335,1.333335 0 0 1 1.33398,1.33398 1.333335,1.333335 0 0 1 -1.33398,1.33204 H 248 v 132 A 1.333335,1.333335 0 0 1 246.66602,468 a 1.333335,1.333335 0 0 1 -1.33204,-1.33398 v -132 H 15.101562 L 147.94922,799.63281 a 1.333335,1.333335 0 0 1 -0.91602,1.64844 z"
         horiz-adv-x="440.00" />
      <glyph
         glyph-name="Digit Five"
         unicode="5"
         id="glyph297"
         d="M 13.333984,801.33398 A 1.3334684,1.3334684 0 0 1 12,800 V 533.33398 A 1.3334684,1.3334684 0 0 1 13.333984,532 H 186.66602 c 52.54733,0 91.95606,-20.64174 118.37304,-51.61523 26.41698,-30.9735 39.80465,-72.33989 39.9668,-113.72266 0.16215,-41.38277 -12.90154,-82.74516 -39.23438,-113.71484 -26.33283,-30.96969 -65.90081,-51.61329 -119.10546,-51.61329 H 13.333984 A 1.333335,1.333335 0 0 1 12,200 1.333335,1.333335 0 0 1 13.333984,198.66602 H 186.66602 c 53.89628,0 94.32919,21.02247 121.13867,52.55273 26.80947,31.53026 40.03156,73.50265 39.86718,115.45313 -0.16437,41.95047 -13.71492,83.91691 -40.60351,115.44335 -26.88859,31.52645 -67.15485,52.55079 -120.40234,52.55079 H 14.666016 v 264 H 346.66602 A 1.333335,1.333335 0 0 1 348,800 a 1.333335,1.333335 0 0 1 -1.33398,1.33398 z"
         horiz-adv-x="480.00" />
      <glyph
         glyph-name="Digit Six"
         unicode="6"
         id="glyph299"
         d="m 280,801.33398 c -161.46981,0 -268,-128.794 -268,-268 V 366.66602 c 0,-83.72844 69.882456,-168 168,-168 87.71809,0 168,80.08841 168,168 V 400 c 0,79.17805 -59.51488,134.66602 -134.66602,134.66602 H 14.697266 c 0.677311,137.33374 105.766874,264 265.302734,264 A 1.333335,1.333335 0 0 1 281.33398,800 1.333335,1.333335 0 0 1 280,801.33398 Z M 14.666016,532 H 213.33398 c 73.8429,0 132,-54.1542 132,-132 v -33.33398 c 0,-86.28354 -79.24361,-165.33204 -165.33398,-165.33204 -96.589449,0 -165.333984,83.08846 -165.333984,165.33204 z"
         horiz-adv-x="440.00" />
      <glyph
         glyph-name="Digit Seven"
         unicode="7"
         id="glyph301"
         d="M 13.333984,801.33398 A 1.3334684,1.3334684 0 0 1 12,800 V 733.33398 A 1.333335,1.333335 0 0 1 13.333984,732 a 1.333335,1.333335 0 0 1 1.332032,1.33398 v 65.33204 H 344.91211 L 178.71484,200.35742 a 1.333335,1.333335 0 0 1 0.92774,-1.64258 1.333335,1.333335 0 0 1 1.64258,0.92774 l 166.66601,600 a 1.3334684,1.3334684 0 0 1 -1.28515,1.6914 z"
         horiz-adv-x="440.00" />
      <glyph
         glyph-name="Digit Eight"
         unicode="8"
         id="glyph303"
         d="m 179.58984,801.51562 c -74.35839,0 -134.666012,-60.3076 -134.666012,-134.66601 0,-68.14908 50.668335,-124.4609 116.371092,-133.39649 C 77.765162,523.73523 12.896484,452.76173 12.896484,366.62891 c 0,-92.76787 75.232141,-168 167.999996,-168 92.76787,0 168,75.23213 168,168 0,86.58399 -65.54434,157.86824 -149.70703,166.99023 65.07009,9.49696 115.06641,65.53131 115.06641,133.23047 0,74.35841 -60.30761,134.66602 -134.66602,134.66601 z m 0,-2.66601 c 72.91724,0 132,-59.08277 132,-132 0,-72.91723 -59.08276,-132 -132,-132 -72.91722,0 -131.999996,59.08277 -131.999996,132 0,72.91723 59.082776,132 131.999996,132 z m 1.30664,-266.88672 c 91.3267,0 165.33399,-74.0073 165.33399,-165.33398 0,-91.3267 -74.00729,-165.33399 -165.33399,-165.33399 -91.326682,0 -165.33398,74.00729 -165.33398,165.33399 0,91.32668 74.007298,165.33398 165.33398,165.33398 z"
         horiz-adv-x="440.00" />
      <glyph
         glyph-name="Digit Nine"
         unicode="9"
         id="glyph306"
         d="m 180,801.33398 c -87.718091,0 -168,-80.08841 -168,-168 V 600 C 12,520.82195 71.514882,465.33398 146.66602,465.33398 h 198.63671 c -0.67731,-137.33374 -105.76687,-264 -265.30273,-264 A 1.333335,1.333335 0 0 1 78.666016,200 1.333335,1.333335 0 0 1 80,198.66602 c 161.4698,0 268,128.794 268,268 v 166.66796 c 0,83.72844 -69.88245,168 -168,168 z m 0,-2.66796 c 96.58946,0 165.33398,-83.08846 165.33398,-165.33204 V 468 H 146.66602 C 72.823124,468 14.666016,522.1542 14.666016,600 v 33.33398 c 0,86.28354 79.243615,165.33204 165.333984,165.33204 z"
         horiz-adv-x="460.00" />
      <glyph
         glyph-name="Colon"
         unicode=":"
         id="glyph308"
         d="m 14.666016,548 a 1.3334684,1.3334684 0 0 1 -1.332032,-1.33398 V 520 a 1.3334684,1.3334684 0 0 1 1.332032,-1.33398 H 41.333984 A 1.333335,1.333335 0 0 1 42.666016,520 v 26.66602 A 1.3334684,1.3334684 0 0 1 41.333984,548 Z M 16,545.33398 h 24 v -24 H 16 Z M 14.666016,280 a 1.3334684,1.3334684 0 0 1 -1.332032,-1.33398 V 252 a 1.3334684,1.3334684 0 0 1 1.332032,-1.33398 H 41.333984 A 1.333335,1.333335 0 0 1 42.666016,252 v 26.66602 A 1.3334684,1.3334684 0 0 1 41.333984,280 Z M 16,277.33398 h 24 v -24 H 16 Z" />
      <glyph
         glyph-name="Semi-Colon"
         unicode=";"
         id="glyph311"
         d="m 14.666016,548 a 1.3334684,1.3334684 0 0 1 -1.332032,-1.33398 V 520 a 1.3334684,1.3334684 0 0 1 1.332032,-1.33398 H 41.333984 A 1.333335,1.333335 0 0 1 42.666016,520 v 26.66602 A 1.3334684,1.3334684 0 0 1 41.333984,548 Z M 16,545.33398 h 24 v -24 H 16 Z M 13.333984,226.66602 A 1.3334684,1.3334684 0 0 1 12,225.33398 v -26.66796 a 1.3334684,1.3334684 0 0 1 1.333984,-1.33204 H 38.261719 L 12.025391,66.92969 a 1.333335,1.333335 0 0 1 1.044921,-1.57031 1.333335,1.333335 0 0 1 1.570313,1.04492 l 26.470703,131.57031 a 1.333335,1.333335 0 0 1 0.222656,0.69141 v 26.66796 A 1.3334684,1.3334684 0 0 1 40,226.66602 Z M 14.666016,224 h 24 v -24 h -24 z" />
      <glyph
         glyph-name="Less Than"
         unicode="&lt;"
         id="glyph315"
         d="m 413.8418,601.23242 a 1.333335,1.333335 0 0 1 -1.02149,-0.002 L 12.820313,434.56445 a 1.3334684,1.3334684 0 0 1 0,-2.46093 L 412.82031,265.43555 a 1.333335,1.333335 0 0 1 1.74414,0.71875 1.333335,1.333335 0 0 1 -0.71875,1.74218 L 16.798828,433.33398 413.8457,598.76953 a 1.333335,1.333335 0 0 1 0.71875,1.74414 1.333335,1.333335 0 0 1 -0.72265,0.71875 z"
         horiz-adv-x="500" />
      <glyph
         glyph-name="Equal"
         unicode="="
         id="glyph317"
         d="M 13.333984,534.66602 A 1.333335,1.333335 0 0 1 12,533.33398 1.333335,1.333335 0 0 1 13.333984,532 H 413.33398 a 1.333335,1.333335 0 0 1 1.33204,1.33398 1.333335,1.333335 0 0 1 -1.33204,1.33204 z m 0,-200 A 1.333335,1.333335 0 0 1 12,333.33398 1.333335,1.333335 0 0 1 13.333984,332 H 413.33398 a 1.333335,1.333335 0 0 1 1.33204,1.33398 1.333335,1.333335 0 0 1 -1.33204,1.33204 z" />
      <glyph
         glyph-name="Greater Than"
         unicode="&gt;"
         id="glyph320"
         d="m 13.845703,601.23047 a 1.333335,1.333335 0 0 1 -1.742187,-0.7168 1.333335,1.333335 0 0 1 0.716797,-1.74414 L 409.86719,433.33398 12.820313,267.89648 a 1.333335,1.333335 0 0 1 -0.716797,-1.74218 1.333335,1.333335 0 0 1 1.742187,-0.71875 L 413.8457,432.10352 a 1.3334684,1.3334684 0 0 1 0,2.46093 z"
         horiz-adv-x="500" />
      <glyph
         glyph-name="Questionmark"
         unicode="?"
         id="glyph322"
         d="m 180,801.33398 c -83.799021,0 -122.549919,-13.19253 -167.1875,-32.10546 a 1.333335,1.333335 0 0 1 -0.707031,-1.74805 1.333335,1.333335 0 0 1 1.748047,-0.70899 C 58.392435,785.64262 96.479523,798.66602 180,798.66602 c 32.1945,0 56.79124,-13.83721 73.42773,-32.94141 16.63651,-19.1042 25.23829,-43.51147 25.23829,-64.39063 0,-25.91591 -10.84654,-42.14602 -24.6211,-56.28906 -13.73874,-14.10626 -30.43704,-25.97997 -41.72656,-42.8457 -33.66844,-33.68135 -66.98438,-75.90348 -66.98438,-120.86524 v -80 A 1.333335,1.333335 0 0 1 146.66602,400 1.333335,1.333335 0 0 1 148,401.33398 v 80 c 0,43.66874 32.75036,85.53161 66.27539,119.05664 a 1.3334684,1.3334684 0 0 1 0.16797,0.20313 c 10.93159,16.39739 27.50855,28.21209 41.51172,42.58984 14.00316,14.37777 25.3789,31.48317 25.3789,58.15039 0,21.60815 -8.81998,46.53342 -25.89453,66.14063 C 238.36491,787.08182 212.96093,801.33398 180,801.33398 Z M 133.33398,228 A 1.3334684,1.3334684 0 0 1 132,226.66602 V 200 a 1.3334684,1.3334684 0 0 1 1.33398,-1.33398 H 160 A 1.333335,1.333335 0 0 1 161.33398,200 v 26.66602 A 1.3334684,1.3334684 0 0 1 160,228 Z m 1.33204,-2.66602 h 24 v -24 h -24 z" />
      <glyph
         glyph-name="At Sign"
         unicode="@"
         id="glyph325"
         d="M 280,901.33398 C 145.29629,901.33398 78.037098,835.93025 44.773437,770.60547 11.509777,705.28069 12,639.99023 12,639.99023 V 333.33398 C 12,257.91772 42.205615,199.17217 87.482422,159.36914 132.75923,119.56611 193.06405,98.66602 253.33398,98.66602 a 1.333335,1.333335 0 0 1 1.33204,1.33398 1.333335,1.333335 0 0 1 -1.33204,1.33398 c -59.65315,0 -119.34949,20.70593 -164.091793,60.03907 -44.742298,39.33313 -74.576171,97.25566 -74.576171,171.96093 V 640 a 1.3334684,1.3334684 0 0 1 0,0.01 c 0,0 -0.44846,64.70967 32.484375,129.38476 C 80.083225,834.06962 146.15689,898.66602 280,898.66602 c 133.84392,0 199.91916,-64.47596 232.85156,-129.0293 32.93241,-64.55334 32.48242,-129.14063 32.48242,-129.14063 a 1.3334684,1.3334684 0 0 1 0,-0.01 V 400 c 0,-27.30373 -10.24103,-47.51319 -25.58789,-60.96875 -15.34685,-13.45556 -35.86569,-20.13368 -56.40625,-20.03906 -20.54055,0.0946 -41.06676,6.96223 -56.41797,20.46875 C 391.57067,352.96745 381.33398,373.08486 381.33398,400 V 700 A 1.3334684,1.3334684 0 0 1 380,701.33398 h -99.97656 c -28.72052,0.48651 -54.03752,-13.91514 -72.15625,-33.84375 -18.11874,-19.9286 -29.13391,-45.39629 -29.20117,-67.48632 a 1.3334684,1.3334684 0 0 1 0,-0.004 v -200 c 0,-27.65983 12.68165,-48.4718 31.59375,-62.1875 18.91209,-13.7157 44.00264,-20.43089 69.07812,-20.33398 25.07548,0.0969 50.16445,7.00626 69.07227,20.76757 16.32846,11.88403 27.96909,28.9767 30.85351,50.98243 2.38765,-22.32311 12.14018,-39.66627 25.89649,-51.76954 15.89876,-13.98827 37.0419,-21.03549 58.16796,-21.13281 21.12607,-0.0973 42.27267,6.75596 58.17579,20.69922 C 537.40702,350.96866 548,372.02625 548,400 v 240.47656 0.01 c 2.1e-4,0.0283 0.48341,65.17397 -32.77344,130.36328 C 481.96247,836.05311 414.70291,901.33398 280,901.33398 Z m -0.0234,-202.66796 a 1.3334684,1.3334684 0 0 1 0.0234,0 h 98.66602 V 401.33398 A 1.333335,1.333335 0 0 1 377.33398,400 c 0,-26.46026 -12.15199,-46.24804 -30.49414,-59.59766 -18.34214,-13.34961 -42.92057,-20.16278 -67.51172,-20.25781 -24.59114,-0.095 -49.16603,6.52887 -67.5039,19.82813 C 193.48635,353.27191 181.33398,373.15008 181.33398,400 V 599.99609 600 c 0.0658,21.2029 10.78944,46.21116 28.50586,65.69727 17.71749,19.48727 42.33418,33.43971 70.13672,32.96875 z"
         horiz-adv-x="640.00" />
      <glyph
         glyph-name="A"
         unicode="A"
         id="glyph2"
         d="M 61.351562,361.89063 A 1.889765,1.889765 0 0 1 59.462891,360 1.889765,1.889765 0 0 1 61.351562,358.10938 H 354.68945 a 1.889765,1.889765 0 0 1 1.88867,1.89062 1.889765,1.889765 0 0 1 -1.88867,1.89063 z M 208,801.88867 a 1.8899528,1.8899528 0 0 1 -1.79297,-1.29101 l -199.9999988,-600 a 1.8897638,1.8897638 0 0 1 1.1953125,-2.39063 1.8897638,1.8897638 0 0 1 2.3906251,1.19531 L 208,794.02344 406.20703,199.40234 a 1.8897638,1.8897638 0 0 1 2.39063,-1.19531 1.8897638,1.8897638 0 0 1 1.19531,2.39063 l -200,600 A 1.8899528,1.8899528 0 0 1 208,801.88867 Z"
         horiz-adv-x="500.00" />
      <glyph
         glyph-name=""
         unicode="B"
         id="glyph3"
         horiz-adv-x="450"
         d="M 13.333984,802.83398 A 2.8349285,2.8349285 0 0 1 10.498047,800 V 533.33398 200 a 2.8349285,2.8349285 0 0 1 2.835937,-2.83398 H 207.5 a 2.8349285,2.8349285 0 0 1 0.0215,0 c 0,0 35.55783,0.25313 71.07227,21.64843 35.51444,21.39531 70.97329,64.27077 70.9082,147.85352 -0.0652,83.70015 -40.90342,126.60775 -81.5664,147.93359 -20.50247,10.75259 -40.95183,16.12822 -56.22266,18.83203 12.28384,2.33378 27.60512,6.48766 43.09375,14.25 34.07311,17.0762 68.30155,51.6653 68.02734,118.99414 -0.2738,67.22701 -33.13047,101.79425 -65.76562,118.9043 -32.63515,17.11005 -65.14453,17.25195 -65.14453,17.25195 a 2.8349285,2.8349285 0 0 1 -0.0156,0 z m 2.833985,-5.66796 H 191.89258 c 0,0 31.26719,-0.20617 62.54297,-16.60352 31.27578,-16.39735 62.46407,-48.49842 62.73047,-113.9082 0.26644,-65.42313 -32.17174,-97.49994 -64.9004,-113.90235 C 219.55389,536.35802 186.7,536.16816 186.66602,536.16797 H 16.167969 Z m 0,-266.66797 H 186.64648 c 0,0 39.3496,-0.30448 78.6543,-20.91797 39.3047,-20.61349 78.46749,-61.04051 78.53125,-142.91602 0.0639,-81.99291 -34.06267,-122.45011 -68.16406,-142.99414 -34.10139,-20.54403 -68.19141,-20.83594 -68.19141,-20.83594 H 16.167969 Z" />
      <glyph
         glyph-name=""
         unicode="C"
         id="glyph4"
         d="m 146.66602,802.83398 0.26367,-0.0117 c 0,0 -50.356673,4.53762 -95.697268,-40.43946 C 5.8755946,717.38963 10.511719,666.40235 10.511719,666.40235 l -0.01367,0.26368 V 333.33399 l 0.01563,0.29493 c 0,0 -1.1850996,-11.6399 3.210937,-29.01758 4.396037,-17.37769 14.370126,-40.74522 36.5,-64.81641 44.388968,-48.28293 96.644534,-44.70312 96.644534,-44.70312 l -0.1582,-0.006 133.33398,2.08008 a 2.834645,2.834645 0 0 1 2.78906,2.8789 2.834645,2.834645 0 0 1 -2.8789,2.78906 l -133.33203,-2.08007 a 2.8349285,2.8349285 0 0 1 -0.15821,-0.006 c 0,0 -49.258714,-3.67817 -92.066406,42.88476 -21.468454,23.35175 -30.984398,45.79274 -35.177734,62.36914 -4.193335,16.5764 -3.068359,27.03711 -3.068359,27.03711 a 2.8349285,2.8349285 0 0 1 0.01563,0.29492 v 333.33231 a 2.8349285,2.8349285 0 0 1 -0.01172,0.26562 c 0,0 -4.644722,48.06316 39.068359,91.42578 43.729312,43.37872 91.17969,38.82031 91.17969,38.82031 a 2.8349285,2.8349285 0 0 1 0.26172,-0.0117 H 280 A 2.834645,2.834645 0 0 1 282.83398,800 2.834645,2.834645 0 0 1 280,802.83398 Z"
         horiz-adv-x="380.00" />
      <glyph
         glyph-name=""
         unicode="D"
         id="glyph5"
         horiz-adv-x="480.00"
         d="m 191.54102,803.08398 c -7.1498,0.19821 -11.27576,-0.17451 -11.58594,-0.20312 H 13.333984 A 2.8803251,2.8803251 0 0 1 10.453125,800 a 2.8803251,2.8803251 0 0 1 0.04492,-0.10938 v -599.75 a 2.8803251,2.8803251 0 0 1 -0.04492,-0.10546 2.8803251,2.8803251 0 0 1 2.845703,-2.91602 L 179.875,195.08789 c 0,0 84.5091,-4.07796 130.80664,44.68164 45.99812,48.44426 41.07843,126.38847 41.04102,126.9707 v 266.59375 c 0.0857,1.20101 4.71326,69.40677 -48.25196,122.5918 -40.10466,40.2711 -89.6591,46.54081 -111.92968,47.1582 z m 0.0996,-5.75 c 21.42467,-0.60656 69.10513,-6.66936 107.74805,-45.47265 51.56088,-51.77486 46.58203,-118.3125 46.58203,-118.3125 a 2.8806131,2.8806131 0 0 1 -0.008,-0.21485 V 366.66602 a 2.8806131,2.8806131 0 0 1 0.006,-0.17579 c 0,0 4.40763,-76.54833 -39.46484,-122.7539 C 262.75846,197.66446 180.125,200.84375 180.125,200.84375 a 2.8806131,2.8806131 0 0 1 -0.0898,0.002 L 16.167969,202.84766 V 797.11914 H 180 a 2.8806131,2.8806131 0 0 1 0.27539,0.0137 c 0,0 4.22368,0.40336 11.36523,0.20117 z" />
      <glyph
         glyph-name=""
         unicode="E"
         id="glyph7"
         d="M 13.333984,802.83398 A 2.8349285,2.8349285 0 0 1 10.498047,800 V 533.33398 200 a 2.8349285,2.8349285 0 0 1 2.835937,-2.83398 H 280 A 2.834645,2.834645 0 0 1 282.83398,200 2.834645,2.834645 0 0 1 280,202.83398 H 16.167969 V 530.49805 H 213.33398 a 2.834645,2.834645 0 0 1 2.83399,2.83593 2.834645,2.834645 0 0 1 -2.83399,2.83399 H 16.167969 V 797.16602 H 280 A 2.834645,2.834645 0 0 1 282.83398,800 2.834645,2.834645 0 0 1 280,802.83398 Z"
         horiz-adv-x="360.00" />
      <glyph
         glyph-name=""
         unicode="F"
         id="glyph9"
         horiz-adv-x="400.00"
         d="M 13.333984,802.83398 A 2.8349285,2.8349285 0 0 1 10.498047,800 V 533.33398 200 A 2.834645,2.834645 0 0 1 13.333984,197.16602 2.834645,2.834645 0 0 1 16.167969,200 V 530.49805 H 280 a 2.834645,2.834645 0 0 1 2.83398,2.83593 A 2.834645,2.834645 0 0 1 280,536.16797 H 16.167969 V 797.16602 H 280 A 2.834645,2.834645 0 0 1 282.83398,800 2.834645,2.834645 0 0 1 280,802.83398 Z" />
      <glyph
         glyph-name=""
         unicode="G"
         id="glyph11"
         d="m 146.66602,802.83398 0.26367,-0.0117 c 0,0 -50.356673,4.53762 -95.697268,-40.43946 C 5.8755946,717.38963 10.511719,666.40235 10.511719,666.40235 l -0.01367,0.26368 V 333.33399 l 0.01563,0.29493 c 0,0 -1.1850996,-11.6399 3.210937,-29.01758 4.396037,-17.37769 14.370126,-40.74522 36.5,-64.81641 44.388968,-48.28293 96.644534,-44.70312 96.644534,-44.70312 l -0.17383,-0.006 200,2.08008 A 2.8349285,2.8349285 0 0 1 349.50195,200 v 333.33398 a 2.8349285,2.8349285 0 0 1 -2.83593,2.83399 h -100 a 2.834645,2.834645 0 0 1 -2.83399,-2.83399 2.834645,2.834645 0 0 1 2.83399,-2.83593 h 97.16601 V 202.80469 l -197.19531,-2.05078 a 2.8349285,2.8349285 0 0 1 -0.17188,-0.006 c 0,0 -49.258711,-3.67817 -92.066403,42.88476 -21.468454,23.35175 -30.984398,45.79274 -35.177734,62.36914 -4.193335,16.5764 -3.068359,27.03711 -3.068359,27.03711 a 2.8349285,2.8349285 0 0 1 0.01563,0.29492 v 333.33218 a 2.8349285,2.8349285 0 0 1 -0.01172,0.26562 c 0,0 -4.644722,48.06316 39.068359,91.42578 43.729312,43.37872 91.179687,38.82031 91.179687,38.82031 a 2.8349285,2.8349285 0 0 1 0.26172,-0.0117 h 200 a 2.834645,2.834645 0 0 1 2.83593,2.83397 2.834645,2.834645 0 0 1 -2.83593,2.83398 z"
         horiz-adv-x="480.00" />
      <glyph
         glyph-name=""
         unicode="H"
         id="glyph13"
         d="M 13.333984,802.83398 A 2.834645,2.834645 0 0 1 10.498047,800 V 533.33398 200 A 2.834645,2.834645 0 0 1 13.333984,197.16602 2.834645,2.834645 0 0 1 16.167969,200 V 530.49805 H 343.83203 V 200 a 2.834645,2.834645 0 0 1 2.83399,-2.83398 A 2.834645,2.834645 0 0 1 349.50195,200 V 533.33398 800 a 2.834645,2.834645 0 0 1 -2.83593,2.83398 A 2.834645,2.834645 0 0 1 343.83203,800 V 536.16797 H 16.167969 V 800 a 2.834645,2.834645 0 0 1 -2.833985,2.83398 z"
         horiz-adv-x="450.00" />
      <glyph
         glyph-name=""
         unicode="I"
         id="glyph17"
         d="M 13.333984,802.83398 A 2.834645,2.834645 0 0 1 10.498047,800 2.834645,2.834645 0 0 1 13.333984,797.16602 H 77.166016 V 202.83398 H 13.333984 A 2.834645,2.834645 0 0 1 10.498047,200 2.834645,2.834645 0 0 1 13.333984,197.16602 H 146.66602 a 2.834645,2.834645 0 0 1 2.83593,2.83398 2.834645,2.834645 0 0 1 -2.83593,2.83398 H 82.833984 v 594.33204 h 63.832036 a 2.834645,2.834645 0 0 1 2.83593,2.83398 2.834645,2.834645 0 0 1 -2.83593,2.83398 H 80 Z"
         horiz-adv-x="260.00" />
      <glyph
         glyph-name=""
         unicode="J"
         id="glyph21"
         d="M 213.33398,802.88086 A 2.8803251,2.8803251 0 0 1 210.45312,800 V 333.33398 a 2.8806131,2.8806131 0 0 1 0.0234,-0.37304 c 0,0 1.30388,-9.66431 -2.86328,-25.49219 -4.16715,-15.82788 -13.82237,-37.54502 -36.00586,-60.9082 C 127.33917,199.93816 80.167969,202.875 80.167969,202.875 A 2.8806131,2.8806131 0 0 1 80,202.88086 H 13.333984 A 2.8803251,2.8803251 0 0 1 10.453125,200 2.8803251,2.8803251 0 0 1 13.333984,197.11914 H 80 l -0.167969,0.006 c 0,0 50.178249,-2.74038 95.953129,45.46875 22.83807,24.05258 33.00258,46.71168 37.39843,63.4082 4.39585,16.69653 3.00586,27.70313 3.00586,27.70313 l 0.0234,-0.3711 V 800 a 2.8803251,2.8803251 0 0 1 -2.87891,2.88086 z"
         horiz-adv-x="360.00" />
      <glyph
         glyph-name=""
         unicode="K"
         id="glyph23"
         d="M 13.333984,802.83398 A 2.834645,2.834645 0 0 1 10.498047,800 V 200 A 2.834645,2.834645 0 0 1 13.333984,197.16602 2.834645,2.834645 0 0 1 16.167969,200 V 438.88867 L 131.76172,563.73047 344.2168,198.57422 a 2.834645,2.834645 0 0 1 3.875,-1.02344 2.834645,2.834645 0 0 1 1.02539,3.875 l -213.32813,366.6543 212.95703,229.99414 a 2.834645,2.834645 0 0 1 -0.15429,4.00586 2.834645,2.834645 0 0 1 -2.03321,0.75195 2.834645,2.834645 0 0 1 -1.97265,-0.90625 L 16.167969,447.23242 V 800 a 2.834645,2.834645 0 0 1 -2.833985,2.83398 z"
         horiz-adv-x="460.00" />
      <glyph
         glyph-name=""
         unicode="L"
         id="glyph27"
         d="M 13.333984,802.83398 A 2.834645,2.834645 0 0 1 10.498047,800 V 200 a 2.8349285,2.8349285 0 0 1 2.835937,-2.83398 H 280 A 2.834645,2.834645 0 0 1 282.83398,200 2.834645,2.834645 0 0 1 280,202.83398 H 16.167969 V 800 a 2.834645,2.834645 0 0 1 -2.833985,2.83398 z"
         horiz-adv-x="400.00" />
      <glyph
         glyph-name=""
         unicode="M"
         id="glyph29"
         d="M 12.576172,802.73047 A 2.8349285,2.8349285 0 0 1 10.498047,800 V 200 A 2.834645,2.834645 0 0 1 13.333984,197.16602 2.834645,2.834645 0 0 1 16.167969,200 V 789.76563 L 210.90234,465.20898 a 2.8349285,2.8349285 0 0 1 4.86133,0 L 410.49805,789.76563 V 200 a 2.834645,2.834645 0 0 1 2.83593,-2.83398 2.834645,2.834645 0 0 1 2.83399,2.83398 v 600 a 2.8349285,2.8349285 0 0 1 -5.26563,1.45898 L 213.33203,472.17578 15.763672,801.45898 a 2.8349285,2.8349285 0 0 1 -3.1875,1.27149 z"
         horiz-adv-x="500.00" />
      <glyph
         glyph-name=""
         unicode="N"
         id="glyph31"
         d="M 346.66602,802.83398 A 2.834645,2.834645 0 0 1 343.83203,800 V 210.93945 L 15.810547,801.37695 A 2.8349285,2.8349285 0 0 1 10.498047,800 V 200 A 2.834645,2.834645 0 0 1 13.333984,197.16602 2.834645,2.834645 0 0 1 16.167969,200 V 789.06055 L 344.18945,198.62305 A 2.8349285,2.8349285 0 0 1 349.50195,200 v 600 a 2.834645,2.834645 0 0 1 -2.83593,2.83398 z"
         horiz-adv-x="440.00" />
      <glyph
         glyph-name=""
         unicode="O"
         id="glyph33"
         d="m 177.18945,802.8125 0.11524,-0.002 c 0,0 -66.95987,2.73058 -117.863284,-50.92383 C 8.5739866,698.27024 13.498047,633.15039 13.498047,633.15039 l -0.0078,0.21289 V 368.63672 l 0.0039,0.16797 c 0,0 -4.8865096,-76.39692 39.076171,-124.99805 C 96.654714,195.07095 177.25,197.18945 177.25,197.18945 l -0.0606,-0.002 h 5.62305 l -0.0606,0.002 c 0,0 80.59529,-2.11849 124.67969,46.61719 43.93631,48.57196 39.07617,123.00391 39.07617,123.00391 l 0.004,-0.17383 v 266.72656 l -0.008,-0.21289 c 0,0 4.92406,65.11985 -45.94336,118.73633 -50.90342,53.65441 -117.86133,50.92383 -117.86133,50.92383 l 0.11328,0.002 z m -0.11523,-5.62305 a 2.8122512,2.8122512 0 0 1 0.11523,-0.002 h 5.62305 a 2.8122512,2.8122512 0 0 1 0.11523,0.002 c 0,0 64.40657,2.62837 113.55274,-49.17382 49.18216,-51.84014 44.41601,-114.43946 44.41601,-114.43946 a 2.8122512,2.8122512 0 0 1 -0.008,-0.21289 V 366.63672 a 2.8122512,2.8122512 0 0 1 0.006,-0.17383 c 0,0 4.23129,-72.60169 -37.63281,-118.88281 C 261.5457,201.46266 182.875,202.81055 182.875,202.81055 a 2.8122512,2.8122512 0 0 1 -0.0625,0.002 h -5.62305 a 2.8122512,2.8122512 0 0 1 -0.0605,-0.002 c 0,0 -78.672655,-1.34789 -120.388676,44.76953 C 14.902521,293.83204 19.109375,368.4668 19.109375,368.4668 a 2.8122512,2.8122512 0 0 1 0.0039,0.16992 v 264.72656 a 2.8122512,2.8122512 0 0 1 -0.0078,0.21289 c 0,0 -4.766139,62.59932 44.416015,114.43946 49.14617,51.80219 113.55274,49.17382 113.55274,49.17382 z"
         horiz-adv-x="440.00" />
      <glyph
         glyph-name=""
         unicode="P"
         id="glyph36"
         d="M 13.333984,802.83398 A 2.8349285,2.8349285 0 0 1 10.498047,800 V 466.53516 200 A 2.834645,2.834645 0 0 1 13.333984,197.16602 2.834645,2.834645 0 0 1 16.167969,200 v 263.70898 l 165.693361,0.25 -0.13867,0.004 c 0,0 41.83632,-2.01281 83.76953,18.1875 41.93321,20.20031 84.00976,63.14392 84.00976,151.18359 0,88.0598 -43.03316,131.03471 -85.88672,151.25586 -42.85355,20.22116 -85.5996,18.24219 -85.59961,18.24219 l 0.12891,0.002 z m 164.937496,-5.66601 c 0,0 41.51595,1.83392 82.92383,-17.70508 41.40789,-19.53899 82.63672,-59.89631 82.63672,-146.12891 0,-86.25272 -40.32892,-126.57983 -80.80078,-146.07617 C 222.55939,467.76147 181.99023,469.625 181.99023,469.625 a 2.8349285,2.8349285 0 0 1 -0.13867,0.004 L 16.167969,469.379 V 797.16602 H 178.14453 a 2.8349285,2.8349285 0 0 1 0.12695,0.002 z"
         horiz-adv-x="420.00" />
      <glyph
         glyph-name=""
         unicode="Q"
         id="glyph37"
         d="M 174.32812,802.82227 C 160.81566,802.61136 103.98185,798.83428 59.441406,751.88672 9.0190434,698.7394 13.409439,634.47712 13.490234,633.35352 V 368.69922 C 13.453045,368.10662 8.7793057,292.21798 52.570312,243.80664 96.654664,195.071 177.25,197.18945 177.25,197.18945 l -0.0606,-0.002 h 5.62305 l -0.0606,0.002 c 0,0 80.59533,-2.11844 124.67969,46.61719 9.84006,10.87827 17.12812,23.06432 22.67578,35.41016 l 81.2207,-81.22071 a 2.834645,2.834645 0 0 1 4.00977,0 2.834645,2.834645 0 0 1 0,4.00782 l -82.78711,82.78711 c 16.50114,40.78358 13.98903,81.47523 13.96094,81.91406 v 266.6582 c 0.0844,1.17675 4.44983,65.39859 -45.95117,118.52344 -50.90337,53.65436 -117.86133,50.92383 -117.86133,50.92383 l 0.11328,0.002 h -5.62305 l 0.11524,-0.002 c 0,0 -1.04621,0.0418 -2.97657,0.0117 z m -0.11718,-5.6211 c 1.8571,0.0293 2.86328,-0.0117 2.86328,-0.0117 a 2.8122512,2.8122512 0 0 1 0.11523,-0.002 h 5.62305 a 2.8122512,2.8122512 0 0 1 0.11523,0.002 c 0,0 64.40662,2.62831 113.55274,-49.17383 49.18211,-51.84008 44.41601,-114.43945 44.41601,-114.43945 a 2.8122512,2.8122512 0 0 1 -0.008,-0.21289 V 366.63672 a 2.8122512,2.8122512 0 0 1 0.006,-0.17383 c 0,0 2.15549,-38.46711 -12.76758,-77.24805 l -46.12304,46.12305 A 2.834645,2.834645 0 0 1 280,336.16797 a 2.834645,2.834645 0 0 1 -2.00391,-0.83008 2.834645,2.834645 0 0 1 0,-4.00977 l 47.82032,-47.82031 C 320.40727,270.93465 313.15635,258.51868 303.26172,247.58008 261.54579,201.4627 182.875,202.81055 182.875,202.81055 a 2.8122512,2.8122512 0 0 1 -0.0625,0.002 h -5.62305 a 2.8122512,2.8122512 0 0 1 -0.0605,-0.002 c 0,0 -78.672696,-1.34785 -120.388676,44.76953 C 14.902523,293.83199 19.109375,368.4668 19.109375,368.4668 a 2.8122512,2.8122512 0 0 1 0.0039,0.16992 v 264.72656 a 2.8122512,2.8122512 0 0 1 -0.0078,0.21289 c 0,0 -4.766089,62.59937 44.416015,114.43945 43.002856,45.32688 97.689726,48.98041 110.689456,49.18555 z"
         horiz-adv-x="460.00" />
      <glyph
         glyph-name=""
         unicode="R"
         id="glyph40"
         d="M 13.333984,802.83398 A 2.8349285,2.8349285 0 0 1 10.498047,800 V 466.53516 200 A 2.834645,2.834645 0 0 1 13.333984,197.16602 2.834645,2.834645 0 0 1 16.167969,200 v 263.70898 l 165.693361,0.25 -0.13867,0.004 c 0,0 11.83463,-0.46725 29.03711,1.98242 a 2.834645,2.834645 0 0 1 0.0391,-0.54687 L 344.13086,198.73242 a 2.834645,2.834645 0 0 1 3.80273,-1.26758 2.834645,2.834645 0 0 1 1.26758,3.80274 L 216.41016,466.85352 c 14.40394,2.45954 31.64169,6.89541 49.08203,15.29687 41.93317,20.20029 84.00976,63.14401 84.00976,151.18359 0,88.05972 -43.0332,131.03473 -85.88672,151.25586 -42.8535,20.22114 -85.5996,18.24219 -85.59961,18.24219 l 0.12891,0.002 z m 164.937496,-5.66601 c 0,0 41.51599,1.8339 82.92383,-17.70508 41.40785,-19.53897 82.63672,-59.89639 82.63672,-146.12891 0,-86.25263 -40.32896,-126.57985 -80.80078,-146.07617 C 222.55943,467.76149 181.99023,469.625 181.99023,469.625 a 2.8349285,2.8349285 0 0 1 -0.13867,0.004 l -165.683591,-0.25 V 797.16602 H 178.14453 a 2.8349285,2.8349285 0 0 1 0.12695,0.002 z"
         horiz-adv-x="420.00" />
      <glyph
         glyph-name=""
         unicode="S"
         id="glyph43"
         horiz-adv-x="440.00"
         d="M 180.05664,802.83398 C 112.53414,804.18443 37.166016,751.264 37.166016,666.66602 c 0,-84.58279 74.888674,-122.5293 74.888674,-122.5293 l -0.10547,0.0566 166.66601,-93.33398 a 2.8349285,2.8349285 0 0 1 0.20899,-0.10547 c 0,0 65.00781,-29.24177 65.00781,-117.41993 0,-44.00855 -18.1418,-76.44865 -43.53516,-98.10546 -25.39335,-21.65681 -58.14726,-32.39454 -86.96289,-32.39454 -40.59495,0 -88.70253,21.40488 -126.447261,42.96094 -37.744733,21.55611 -65.134766,43.09965 -65.134766,43.09965 a 2.834645,2.834645 0 0 1 -3.980469,-0.47461 2.834645,2.834645 0 0 1 0.476563,-3.98047 c 0,0 27.696134,-21.79113 65.828125,-43.56836 38.131988,-21.77722 86.693398,-43.70507 129.257808,-43.70507 30.21615,0 64.12728,11.13633 90.64258,33.75 26.51531,22.61367 45.52539,56.84204 45.52539,102.41796 0,90.99079 -68.32617,122.57813 -68.32617,122.57813 l 0.20899,-0.10547 -166.66602,93.33399 a 2.8349285,2.8349285 0 0 1 -0.10547,0.0547 c 0,0 -71.779296,36.23082 -71.779296,117.47071 0,81.22467 72.632846,131.78952 137.109376,130.5 64.55346,-1.29108 138.42578,-52.81836 138.42578,-52.81836 a 2.834645,2.834645 0 0 1 3.94922,0.68945 2.834645,2.834645 0 0 1 -0.6875,3.94922 c 0,0 -74.12866,52.49873 -141.57422,53.84765 z" />
      <glyph
         glyph-name=""
         unicode="T"
         id="glyph45"
         d="M 13.333984,802.83398 A 2.834645,2.834645 0 0 1 10.498047,800 2.834645,2.834645 0 0 1 13.333984,797.16602 H 177.16602 V 200 A 2.834645,2.834645 0 0 1 180,197.16602 2.834645,2.834645 0 0 1 182.83398,200 v 597.16602 h 163.83204 a 2.834645,2.834645 0 0 1 2.83593,2.83398 2.834645,2.834645 0 0 1 -2.83593,2.83398 z"
         horiz-adv-x="400.00" />
      <glyph
         glyph-name=""
         unicode="U"
         id="glyph48"
         d="M 346.66602,802.83594 A 2.834645,2.834645 0 0 1 343.83203,800 V 366.66602 a 2.8349285,2.8349285 0 0 1 0,-0.0566 c 0,0 0.77463,-41.06043 -19.30273,-82.0293 -20.07737,-40.96887 -60.46652,-81.7461 -144.5293,-81.7461 -84.06278,0 -124.45193,40.77723 -144.529297,81.7461 -20.077367,40.96887 -19.302734,82.0293 -19.302734,82.0293 a 2.8349285,2.8349285 0 0 1 0,0.0566 V 800 A 2.834645,2.834645 0 0 1 13.333984,802.83398 2.834645,2.834645 0 0 1 10.498047,800 V 366.66602 l 0.002,0.0566 c 0,0 -0.8823524,-42.27234 19.878906,-84.63672 20.761259,-42.36439 63.705375,-84.91992 149.621097,-84.91992 85.91572,0 128.85983,42.55553 149.62109,84.91992 20.76121,42.36442 19.87886,84.63676 19.87886,84.63676 l 0.002,-0.0566 V 800 a 2.834645,2.834645 0 0 1 -2.83593,2.83594 z"
         horiz-adv-x="440.00" />
      <glyph
         glyph-name=""
         unicode="V"
         id="glyph50"
         d="m 12.574219,802.73047 a 2.834645,2.834645 0 0 1 -1.972656,-3.48828 l 166.667967,-600 a 2.8349285,2.8349285 0 0 1 5.46094,0 l 166.66797,600 a 2.834645,2.834645 0 0 1 -1.97266,3.48828 2.834645,2.834645 0 0 1 -3.49023,-1.97266 L 180,210.58789 16.064453,800.75781 a 2.834645,2.834645 0 0 1 -3.490234,1.97266 z"
         horiz-adv-x="440.00" />
      <glyph
         glyph-name=""
         unicode="W"
         id="glyph52"
         d="m 12.714844,802.76563 a 2.834645,2.834645 0 0 1 -2.148438,-3.38282 L 143.90039,202.06641 a 2.8349285,2.8349285 0 0 1 5.45313,-0.28321 L 280.00391,591.09961 410.64648,202.87305 a 2.8349285,2.8349285 0 0 1 5.45313,0.28711 l 133.33398,596.2207 a 2.834645,2.834645 0 0 1 -2.14843,3.38477 2.834645,2.834645 0 0 1 -3.38477,-2.14649 L 412.78125,214.30273 282.6875,600.9043 a 2.8349285,2.8349285 0 0 1 -5.375,-0.002 L 147.2168,213.23438 16.099609,800.61719 a 2.834645,2.834645 0 0 1 -3.384765,2.14844 z"
         horiz-adv-x="620.00" />
      <glyph
         glyph-name=""
         unicode="X"
         id="glyph54"
         d="m 13.888672,802.7793 a 2.834645,2.834645 0 0 1 -2.126953,-0.41992 2.834645,2.834645 0 0 1 -0.78711,-3.93165 L 209.92578,500 10.974609,201.57227 a 2.834645,2.834645 0 0 1 0.78711,-3.93165 2.834645,2.834645 0 0 1 3.929687,0.78711 L 213.33203,494.89062 410.97461,198.42773 a 2.834645,2.834645 0 0 1 3.93164,-0.78711 2.834645,2.834645 0 0 1 0.78516,3.93165 L 216.74023,500 415.69141,798.42773 a 2.834645,2.834645 0 0 1 -0.78516,3.93165 2.834645,2.834645 0 0 1 -2.12891,0.41992 2.834645,2.834645 0 0 1 -1.80273,-1.20703 L 213.33203,505.10938 15.691406,801.57227 a 2.834645,2.834645 0 0 1 -1.802734,1.20703 z"
         horiz-adv-x="500" />
      <glyph
         glyph-name=""
         unicode="Y"
         id="glyph57"
         d="m 13.798828,802.79688 a 2.834645,2.834645 0 0 1 -2.113281,-0.49024 2.834645,2.834645 0 0 1 -0.658203,-3.95508 L 210.49805,519.0918 V 200 a 2.834645,2.834645 0 0 1 2.83593,-2.83398 2.834645,2.834645 0 0 1 2.83399,2.83398 v 319.08984 l 199.47265,279.26172 a 2.834645,2.834645 0 0 1 -0.66015,3.95508 2.834645,2.834645 0 0 1 -3.95313,-0.6582 L 213.33398,524.87695 15.640625,801.64844 a 2.834645,2.834645 0 0 1 -1.841797,1.14844 z"
         horiz-adv-x="450.00" />
      <glyph
         glyph-name=""
         unicode="Z"
         id="glyph60"
         d="M 13.333984,802.83398 A 2.834645,2.834645 0 0 1 10.498047,800 2.834645,2.834645 0 0 1 13.333984,797.16602 H 341.84961 L 10.855469,201.37695 a 2.8349285,2.8349285 0 0 1 2.478515,-4.21093 H 346.66602 a 2.834645,2.834645 0 0 1 2.83593,2.83398 2.834645,2.834645 0 0 1 -2.83593,2.83398 H 18.150391 L 349.14453,798.62305 a 2.8349285,2.8349285 0 0 1 -2.47851,4.21093 z"
         horiz-adv-x="420.00" />
      <glyph
         glyph-name="L. Square Bracket"
         unicode="["
         id="glyph62"
         d="m 13.333984,869.50195 a 2.8349285,2.8349285 0 0 1 -2.835937,-2.83593 V 133.33398 a 2.8349285,2.8349285 0 0 1 2.835937,-2.83593 H 120 a 2.834645,2.834645 0 0 1 2.83398,2.83593 A 2.834645,2.834645 0 0 1 120,136.16797 H 16.167969 V 863.83203 H 120 a 2.834645,2.834645 0 0 1 2.83398,2.83399 A 2.834645,2.834645 0 0 1 120,869.50195 Z"
         horiz-adv-x="240.00" />
      <glyph
         glyph-name="Back Slash"
         unicode="\"
         id="glyph64"
         d="m 12.365234,869.33008 a 2.834645,2.834645 0 0 1 -1.695312,-3.63281 L 277.33594,132.36523 a 2.834645,2.834645 0 0 1 3.63281,-1.69531 2.834645,2.834645 0 0 1 1.69531,3.63281 L 15.998047,867.63477 a 2.834645,2.834645 0 0 1 -3.632813,1.69531 z" />
      <glyph
         glyph-name="R. Square Bracket"
         unicode="]"
         id="glyph66"
         d="m 13.333984,869.50195 a 2.834645,2.834645 0 0 1 -2.835937,-2.83593 2.834645,2.834645 0 0 1 2.835937,-2.83399 H 117.16602 V 136.16797 H 13.333984 a 2.834645,2.834645 0 0 1 -2.835937,-2.83399 2.834645,2.834645 0 0 1 2.835937,-2.83593 H 120 a 2.8349285,2.8349285 0 0 1 2.83398,2.83593 V 866.66602 A 2.8349285,2.8349285 0 0 1 120,869.50195 Z"
         horiz-adv-x="240.00" />
      <glyph
         glyph-name="Circumflex"
         unicode="^"
         id="glyph68"
         d="M 117.99609,922.00391 11.328125,815.33789 a 2.834645,2.834645 0 0 1 0,-4.00976 2.834645,2.834645 0 0 1 4.009766,0 L 120,915.99219 224.66211,811.32813 a 2.834645,2.834645 0 0 1 4.00976,0 2.834645,2.834645 0 0 1 0,4.00976 L 122.00391,922.00391 a 2.8349285,2.8349285 0 0 1 -4.00782,0 z" />
      <glyph
         glyph-name="Low Line"
         unicode="_"
         id="glyph70"
         d="m 13.333984,136.16797 a 2.834645,2.834645 0 0 1 -2.835937,-2.83399 2.834645,2.834645 0 0 1 2.835937,-2.83593 H 280 a 2.834645,2.834645 0 0 1 2.83398,2.83593 A 2.834645,2.834645 0 0 1 280,136.16797 Z" />
      <glyph
         glyph-name="Grave Accent"
         unicode="`"
         id="glyph72"
         d="m 12.839844,896.125 a 2.834645,2.834645 0 0 1 -1.828125,-1.16602 2.834645,2.834645 0 0 1 0.695312,-3.94726 L 145.04102,797.67773 a 2.834645,2.834645 0 0 1 3.94726,0.69727 2.834645,2.834645 0 0 1 -0.69531,3.94727 L 14.958984,895.65625 a 2.834645,2.834645 0 0 1 -2.11914,0.46875 z" />
      <glyph
         glyph-name=""
         unicode="a"
         id="glyph74"
         d="M 46.666016,602.83398 A 2.834645,2.834645 0 0 1 43.832031,600 2.834645,2.834645 0 0 1 46.666016,597.16602 H 173.33398 a 2.8349285,2.8349285 0 0 1 0.26368,0.0117 c 0,0 7.88416,0.77881 20.66406,-2.96875 12.77989,-3.74755 30.19042,-12.02635 48.53515,-30.37109 18.34475,-18.34474 26.89423,-36.03144 30.90235,-49.0918 4.00812,-13.06035 3.4707,-21.23828 3.4707,-21.23828 a 2.8349285,2.8349285 0 0 1 -0.004,-0.17383 V 436.16796 H 133.33398 a 2.8349285,2.8349285 0 0 1 -0.0976,-0.002 c 0,0 -31.13892,-1.03715 -62.074221,-16.89454 C 40.226808,403.4141 9.3098349,372.16232 10.5,313.27539 11.689388,254.42693 42.625598,224.8595 73.011719,210.68164 103.39784,196.50379 133.39258,197.16602 133.39258,197.16602 H 280 A 2.8349285,2.8349285 0 0 1 282.83398,200 v 233.33398 60 l -0.004,-0.17382 c 0,0 0.54091,9.39546 -3.71094,23.25 -4.25185,13.85453 -13.30047,32.42351 -32.3125,51.43554 -19.01203,19.01204 -37.33613,27.81224 -50.95117,31.80469 -13.61504,3.99245 -22.78711,3.17188 -22.78711,3.17188 l 0.26562,0.0117 z M 133.40625,430.49805 H 277.16602 V 202.83398 H 133.33398 a 2.8349285,2.8349285 0 0 1 -0.0586,0 c 0,0 -28.83641,-0.56018 -57.865234,12.98438 -29.028816,13.54455 -58.091597,40.64393 -59.242177,97.57227 -1.149803,56.88987 27.930449,85.63758 57.580078,100.83593 29.613133,15.17965 59.584403,16.26882 59.658203,16.27149 z"
         horiz-adv-x="400.00" />
      <glyph
         glyph-name=""
         unicode="b"
         id="glyph76"
         d="M 13.333984,802.83398 A 2.834645,2.834645 0 0 1 10.498047,800 V 600 200 a 2.8349285,2.8349285 0 0 1 2.835937,-2.83398 H 186.66602 l -0.17969,0.006 c 0,0 37.37809,-2.3872 68.28711,25.63085 31.1326,28.22073 28.05468,70.72852 28.05468,70.72852 l 0.006,-0.19727 v 213.3319 l -0.0137,-0.28321 c 0,0 0.82718,8.50142 -2.33789,20.68946 -3.16507,12.18803 -10.32962,28.31204 -26.12109,44.10351 -31.58294,31.58294 -67.69531,31.6582 -67.69531,31.6582 H 16.167969 V 800 a 2.834645,2.834645 0 0 1 -2.833985,2.83398 z M 16.167969,597.16602 H 186.66602 c 0,0 33.61572,0.0737 63.6875,-29.99805 15.03589,-15.03589 21.69316,-30.16388 24.64257,-41.52149 2.94942,-11.3576 2.1836,-18.69531 2.1836,-18.69531 a 2.8349285,2.8349285 0 0 1 -0.0137,-0.28515 V 293.33398 a 2.8349285,2.8349285 0 0 1 0.006,-0.19726 c 0,0 2.68199,-39.94955 -26.20507,-66.13477 -29.11064,-26.38787 -64.1211,-24.17383 -64.1211,-24.17382 a 2.8349285,2.8349285 0 0 1 -0.17968,0.006 H 16.167969 Z" />
      <glyph
         glyph-name=""
         unicode="c"
         id="glyph78"
         d="m 106.75,602.83398 c 0,0 -36.112371,-0.0753 -67.695313,-31.6582 C 23.263212,555.38431 16.098662,539.2603 12.933594,527.07227 9.7685255,514.88423 10.595703,506.38281 10.595703,506.38281 l -0.01367,0.28321 V 293.33398 l 0.0059,0.19727 c 0,0 -3.0779118,-42.50779 28.054687,-70.72852 30.909022,-28.01805 68.28711,-25.63086 68.28711,-25.63085 l -0.17969,-0.006 h 173.33394 a 2.834645,2.834645 0 0 1 2.83399,2.83412 2.834645,2.834645 0 0 1 -2.83399,2.83398 H 106.75 a 2.8349285,2.8349285 0 0 1 -0.17969,-0.006 c 0,0 -35.010454,-2.21405 -64.121091,24.17382 -28.887061,26.18537 -26.205078,66.13492 -26.205078,66.13492 a 2.8349285,2.8349285 0 0 1 0.0078,0.19726 v 213.33204 a 2.8349285,2.8349285 0 0 1 -0.01563,0.28515 c 0,0 -0.763869,7.33771 2.185547,18.69531 2.949416,11.35761 9.606685,26.4856 24.642578,41.52149 C 73.13623,597.23975 106.75,597.16602 106.75,597.16602 h 173.33398 a 2.834645,2.834645 0 0 1 2.83399,2.83398 2.834645,2.834645 0 0 1 -2.83399,2.83398 z" />
      <glyph
         glyph-name=""
         unicode="d"
         id="glyph80"
         d="M 280.08398,802.83398 A 2.834645,2.834645 0 0 1 277.24805,800 V 602.83398 H 106.75 c 0,0 -36.112371,-0.0753 -67.695313,-31.6582 C 23.263212,555.38431 16.098662,539.2603 12.933594,527.07227 9.7685255,514.88423 10.595703,506.38281 10.595703,506.38281 l -0.01367,0.28321 V 293.33398 l 0.0059,0.19727 c 0,0 -3.0779118,-42.50779 28.054687,-70.72852 30.909022,-28.01805 68.28711,-25.63086 68.28711,-25.63085 l -0.17969,-0.006 H 280.08398 A 2.8349285,2.8349285 0 0 1 282.91797,200 v 400 200 a 2.834645,2.834645 0 0 1 -2.83399,2.83398 z M 106.75,597.16602 H 277.24805 V 202.83398 H 106.75 a 2.8349285,2.8349285 0 0 1 -0.17969,-0.006 c 0,0 -35.010454,-2.21405 -64.121091,24.17382 -28.887061,26.18537 -26.205078,66.13492 -26.205078,66.13492 a 2.8349285,2.8349285 0 0 1 0.0078,0.19726 v 213.33204 a 2.8349285,2.8349285 0 0 1 -0.01563,0.28515 c 0,0 -0.763869,7.33771 2.185547,18.69531 2.949416,11.35761 9.606685,26.4856 24.642578,41.52149 C 73.13623,597.23975 106.75,597.16602 106.75,597.16602 Z" />
      <glyph
         glyph-name=""
         unicode="e"
         id="glyph82"
         d="m 146.66602,602.83398 c -66.460434,0 -100.868249,-34.23016 -117.998051,-68.2246 C 11.538166,500.61493 11.146484,466.70313 11.146484,466.70313 a 2.8349285,2.8349285 0 0 1 0,-0.0371 V 400 306.66602 l 0.0078,0.20703 c 0,0 -3.0245144,-42.11023 31.154297,-76.28907 16.949683,-16.94969 32.933929,-25.32476 44.738281,-29.42773 11.804352,-4.10297 19.695318,-3.9375 19.695318,-3.9375 H 280 a 2.834645,2.834645 0 0 1 2.83398,2.83398 A 2.834645,2.834645 0 0 1 280,202.88672 H 106.66602 a 2.8349285,2.8349285 0 0 1 -0.0742,0 c 0,0 -6.636334,-0.21677 -17.683597,3.62305 -11.047283,3.83981 -26.240375,11.73253 -42.591817,28.08398 -32.423438,32.42346 -29.507812,71.86719 -29.507812,71.86719 a 2.8349285,2.8349285 0 0 1 0.0078,0.20508 v 90.5 H 280 A 2.8349285,2.8349285 0 0 1 282.83398,400 v 66.66602 a 2.8349285,2.8349285 0 0 1 0,0.0508 c 0,0 -0.55659,33.91177 -17.84961,67.90234 -17.29301,33.99058 -51.85793,68.21484 -118.31835,68.21484 z m 0,-5.66796 c 64.53697,0 96.64139,-32.44117 113.26562,-65.11719 16.62423,-32.67603 17.23438,-65.43164 17.23438,-65.43164 V 402.83398 H 16.816406 v 63.79688 c 0,0 0.450566,32.75558 16.914063,65.42773 16.463497,32.67215 48.398574,65.10743 112.935551,65.10743 z" />
      <glyph
         glyph-name=""
         unicode="f"
         id="glyph84"
         d="M 172.49609,802.99609 C 157.99568,802.73835 126.15994,799.3865 103.46875,776.69531 73.213831,746.44039 77.173828,699.77344 77.173828,699.77344 L 77.166016,700 V 602.83398 H 16.40625 A 2.834645,2.834645 0 0 1 13.570312,600 2.834645,2.834645 0 0 1 16.40625,597.16602 H 77.166016 V 200 A 2.834645,2.834645 0 0 1 80,197.16602 2.834645,2.834645 0 0 1 82.833984,200 V 597.16602 H 213.33398 a 2.834645,2.834645 0 0 1 2.83399,2.83398 2.834645,2.834645 0 0 1 -2.83399,2.83398 H 82.833984 V 700 a 2.8349285,2.8349285 0 0 1 -0.0078,0.22656 c 0,0 -3.346412,44.46414 24.650388,72.46094 27.99681,27.99679 72.28516,24.48828 72.28516,24.48828 a 2.8349285,2.8349285 0 0 1 0.23828,-0.01 h 33.33398 a 2.834645,2.834645 0 0 1 2.83399,2.83398 2.834645,2.834645 0 0 1 -2.83399,2.83398 H 180 l 0.23828,-0.01 c 0,0 -2.90871,0.25779 -7.74219,0.17187 z"
         horiz-adv-x="280.00" />
      <glyph
         glyph-name=""
         unicode="g"
         id="glyph87"
         d="m 106.75,602.78906 0.17969,-0.006 c 0,0 -37.37809,2.3872 -68.287112,-25.63086 C 7.5099792,548.93148 10.587891,506.42369 10.587891,506.42369 l -0.0059,0.19726 V 293.28697 l 0.01367,0.28516 c 0,0 -0.8271775,-8.50142 2.337891,-20.68946 C 16.09862,260.69464 23.26317,244.57063 39.054645,228.77916 70.637629,197.19636 106.75,197.11914 106.75,197.11914 H 277.24805 V 100 a 2.8349285,2.8349285 0 0 1 0.004,-0.14258 c 0,0 1.85627,-35.63592 -28.37695,-65.86914 C 218.70102,3.8142 180.1251,5.49805 180.1251,5.49805 A 2.8349285,2.8349285 0 0 1 180,5.50195 H 53.333984 A 2.834645,2.834645 0 0 1 50.498047,2.66602 2.834645,2.834645 0 0 1 53.333984,-0.168 H 180 179.875 c 0,0 41.04807,-1.8152 73.00977,30.14647 31.90255,31.90255 30.02929,70.16211 30.02929,70.16211 l 0.004,-0.14258 v 99.95508 400 a 2.8349285,2.8349285 0 0 1 -2.83399,2.83398 z M 106.57031,597.125 A 2.8349285,2.8349285 0 0 1 106.75,597.119 H 277.24805 V 202.78906 H 106.75 c 0,0 -33.61377,-0.0737 -63.685547,29.99805 -15.035893,15.03589 -21.693162,30.16388 -24.642578,41.52148 -2.949416,11.35761 -2.185547,18.69532 -2.185547,18.69532 a 2.8349285,2.8349285 0 0 1 0.01563,0.2832 v 213.33398 a 2.8349285,2.8349285 0 0 1 -0.0078,0.19727 c 0,0 -2.681983,39.94759 26.205078,66.13281 29.11062,26.38788 64.121074,24.17383 64.121074,24.17383 z" />
      <glyph
         glyph-name=""
         unicode="h"
         id="glyph93"
         d="M 13.349609,802.83398 A 2.834645,2.834645 0 0 1 10.515625,800 v -199.9707 -400 a 2.834645,2.834645 0 0 1 2.833984,-2.83399 2.834645,2.834645 0 0 1 2.835938,2.83399 V 597.19531 H 186.68359 c 0,0 33.61377,0.0737 63.68555,-29.99804 15.03589,-15.03589 21.69316,-30.16389 24.64258,-41.52149 2.94941,-11.3576 2.18555,-18.69531 2.18555,-18.69531 a 2.8349285,2.8349285 0 0 1 -0.0156,-0.28516 V 200 a 2.834645,2.834645 0 0 1 2.83594,-2.83398 2.834645,2.834645 0 0 1 2.83395,2.83398 v 306.69531 l -0.0137,-0.2832 c 0,0 0.82718,8.50142 -2.33789,20.68945 -3.16507,12.18804 -10.32962,28.31205 -26.12109,44.10352 -31.58295,31.58294 -67.69532,31.6582 -67.69532,31.6582 H 16.185547 V 800 a 2.834645,2.834645 0 0 1 -2.835938,2.83398 z" />
      <glyph
         glyph-name=""
         unicode="i"
         id="glyph95"
         d="m 13.333984,800.55664 a 1.889954,1.889954 0 0 1 -1.890625,-1.89062 v -40 a 1.889954,1.889954 0 0 1 1.890625,-1.88868 h 40 a 1.889954,1.889954 0 0 1 1.888672,1.88868 v 40 a 1.889954,1.889954 0 0 1 -1.888672,1.89062 z m 1.888672,-3.7793 h 36.220703 v -36.2207 H 15.222656 Z M 33.333984,601.89062 A 1.889765,1.889765 0 0 1 31.443359,600 V 200 A 1.889765,1.889765 0 0 1 33.333984,198.10938 1.889765,1.889765 0 0 1 35.222656,200 v 400 a 1.889765,1.889765 0 0 1 -1.888672,1.89062 z"
         horiz-adv-x="180.00" />
      <glyph
         glyph-name=""
         unicode="j"
         id="glyph98"
         d="m 126.66602,800.55664 a 1.889954,1.889954 0 0 1 -1.88868,-1.89062 v -40 a 1.889954,1.889954 0 0 1 1.88868,-1.88868 h 40 a 1.889954,1.889954 0 0 1 1.89062,1.88868 v 40 a 1.889954,1.889954 0 0 1 -1.89062,1.89062 z m 1.89062,-3.7793 h 36.2207 v -36.2207 h -36.2207 z M 146.66602,601.89062 A 1.889765,1.889765 0 0 1 144.77734,600 V 100 c 0,-50.49123 -24.39612,-74.29281 -48.921871,-85.95703 C 71.329723,2.37875 46.734375,3.22266 46.734375,3.22266 a 1.889954,1.889954 0 0 1 -0.06836,0 H 13.333984 A 1.889765,1.889765 0 0 1 11.443359,1.33398 1.889765,1.889765 0 0 1 13.333984,-0.5566 h 33.265625 c 0,0 25.40475,-0.9317 50.878907,11.18355 C 122.95268,22.74412 148.55664,48.27623 148.55664,100 v 500 a 1.889765,1.889765 0 0 1 -1.89062,1.89062 z"
         horiz-adv-x="300.00" />
      <glyph
         glyph-name=""
         unicode="k"
         id="glyph102"
         d="m 13.333984,803.16211 a 1.889765,1.889765 0 0 1 -1.890625,-1.89063 V 201.83203 a 1.889765,1.889765 0 0 1 1.890625,-1.89062 1.889765,1.889765 0 0 1 1.888672,1.89062 V 399.05469 L 134.25391,488.32812 278.30859,199.1582 a 1.889765,1.889765 0 0 1 2.53321,-0.84961 1.889765,1.889765 0 0 1 0.84961,2.53321 L 137.32812,490.63281 281.13477,598.48828 a 1.889765,1.889765 0 0 1 0.37695,2.64649 1.889765,1.889765 0 0 1 -1.24414,0.73632 1.889765,1.889765 0 0 1 -1.40235,-0.35937 L 15.222656,403.7793 v 397.49218 a 1.889765,1.889765 0 0 1 -1.888672,1.89063 z" />
      <glyph
         glyph-name=""
         unicode="l"
         id="glyph105"
         d="M 13.333984,801.89063 A 1.889765,1.889765 0 0 1 11.443359,800 V 300 c 0,-52.41311 25.593218,-78.278 51.070313,-90.55664 25.477095,-12.27864 50.888668,-11.33203 50.888668,-11.33203 a 1.889765,1.889765 0 0 1 1.82032,1.95703 1.889765,1.889765 0 0 1 -1.95703,1.82031 c 0,0 -24.58848,-0.85976 -49.111333,10.95899 C 39.631444,224.6664 15.222656,248.80283 15.222656,300 v 500 a 1.889765,1.889765 0 0 1 -1.888672,1.89063 z"
         horiz-adv-x="220.00" />
      <glyph
         glyph-name=""
         unicode="m"
         id="glyph107"
         d="m 317.5625,602.00586 c -2.78263,10e-4 -4.37109,-0.12109 -4.37109,-0.12109 l 0.14257,0.006 h -100 H 13.333984 A 1.889954,1.889954 0 0 1 11.443359,600 V 200 A 1.889765,1.889765 0 0 1 13.333984,198.10938 1.889765,1.889765 0 0 1 15.222656,200 V 598.10938 H 211.44336 V 200 a 1.889765,1.889765 0 0 1 1.89062,-1.89062 1.889765,1.889765 0 0 1 1.88868,1.89062 v 398.10938 h 98.11132 a 1.889954,1.889954 0 0 1 0.14258,0.006 c 0,0 24.56999,1.83011 49.0625,-9.52343 24.49253,-11.35355 48.9043,-35.53121 48.9043,-88.88086 v -297.3418 a 1.889765,1.889765 0 0 1 1.89062,-1.88867 1.889765,1.889765 0 0 1 1.88868,1.88867 v 297.3418 c 0,54.51761 -25.58638,80.48461 -51.09375,92.30859 -19.13054,8.86799 -38.21854,9.98334 -46.56641,9.98633 z"
         horiz-adv-x="540.00" />
      <glyph
         glyph-name=""
         unicode="n"
         id="glyph110"
         d="m 184.22852,602.00586 c -2.78263,10e-4 -4.3711,-0.12109 -4.3711,-0.12109 L 180,601.89063 H 13.333984 A 1.889954,1.889954 0 0 1 11.443359,600 V 200 A 1.889765,1.889765 0 0 1 13.333984,198.10938 1.889765,1.889765 0 0 1 15.222656,200 V 598.10938 H 180 a 1.889954,1.889954 0 0 1 0.14258,0.006 c 0,0 24.56995,1.83012 49.0625,-9.52343 24.49254,-11.35356 48.90429,-35.53115 48.90429,-88.88086 V 200 A 1.889765,1.889765 0 0 1 280,198.10938 1.889765,1.889765 0 0 1 281.89062,200 v 299.71094 c 0,54.51767 -25.58829,80.4846 -51.0957,92.30859 -19.13055,8.868 -38.21852,9.98334 -46.5664,9.98633 z"
         horiz-adv-x="380.00" />
      <glyph
         glyph-name=""
         unicode="o"
         id="glyph112"
         d="m 133.33398,601.89063 c -37.405169,0 -67.953642,-11.46542 -89.099605,-32.52149 C 23.088412,548.31307 11.443359,517.76023 11.443359,480 V 320 c 0,-36.8704 11.657128,-67.41153 32.798828,-88.6875 21.141701,-21.27597 51.690947,-33.20312 89.091793,-33.20312 H 160 c 74.55523,0 121.89062,54.25165 121.89062,121.89062 v 160 c 0,38.13034 -11.54826,68.68661 -32.65234,89.65234 -21.10407,20.96574 -51.6543,32.23829 -89.23828,32.23829 z m 0,-3.78125 H 160 c 36.8306,0 66.282,-10.97752 86.57422,-31.13672 C 266.86644,546.81345 278.10938,517.36967 278.10937,480 V 320 C 278.10937,254.11048 232.73382,201.89062 160,201.89063 h -26.66602 c -36.599771,0 -66.052071,11.59856 -86.410152,32.08593 C 26.565747,254.46394 15.222656,283.92404 15.222656,320 v 160 c 0,36.98558 11.335793,66.43399 31.679688,86.69141 20.343895,20.25741 49.796493,31.41796 86.431636,31.41797 z" />
      <glyph
         glyph-name=""
         unicode="p"
         id="glyph114"
         d="m 13.333984,602.78906 a 2.8349285,2.8349285 0 0 1 -2.835937,-2.83398 v -400 V -0.0449 a 2.834645,2.834645 0 0 1 2.835937,-2.836 2.834645,2.834645 0 0 1 2.833985,2.836 V 197.11914 H 186.66602 c 0,0 36.11237,0.0772 67.69531,31.66016 15.79147,15.79147 22.95602,31.91548 26.12109,44.10351 3.16507,12.18804 2.33789,20.68946 2.33789,20.68946 l 0.0137,-0.28516 v 213.33398 l -0.006,-0.19726 c 0,0 3.07792,42.50779 -28.05468,70.72851 -30.90891,28.01806 -68.287,25.63086 -68.287,25.63086 l 0.17969,0.006 z M 186.8457,597.125 c 0,0 35.01046,2.21405 64.1211,-24.17383 28.88706,-26.18522 26.20507,-66.13281 26.20507,-66.13281 a 2.8349285,2.8349285 0 0 1 -0.006,-0.19727 V 293.28711 a 2.8349285,2.8349285 0 0 1 0.0137,-0.2832 c 0,0 0.76582,-7.33771 -2.1836,-18.69532 -2.94941,-11.3576 -9.60668,-26.48559 -24.64257,-41.52148 -30.07178,-30.07178 -63.6875,-29.99805 -63.6875,-29.99805 H 16.167969 V 597.11914 H 186.66602 a 2.8349285,2.8349285 0 0 1 0.17968,0.006 z" />
      <glyph
         glyph-name=""
         unicode="q"
         id="glyph116"
         d="m 106.75,602.78906 0.17969,-0.006 c 0,0 -37.37809,2.3872 -68.287112,-25.63086 C 7.5099792,548.93148 10.587891,506.42369 10.587891,506.42369 l -0.0059,0.19726 V 293.28697 l 0.01367,0.28516 c 0,0 -0.8271775,-8.50142 2.337891,-20.68946 C 16.09862,260.69464 23.26317,244.57063 39.054645,228.77916 70.637629,197.19636 106.75,197.11914 106.75,197.11914 H 277.24805 V -0.0449 a 2.834645,2.834645 0 0 1 2.83593,-2.836 2.834645,2.834645 0 0 1 2.83399,2.836 v 199.99998 400 a 2.8349285,2.8349285 0 0 1 -2.83399,2.83398 z M 106.57031,597.125 A 2.8349285,2.8349285 0 0 1 106.75,597.119 H 277.24805 V 202.78906 H 106.75 c 0,0 -33.61377,-0.0737 -63.685547,29.99805 -15.035893,15.03589 -21.693162,30.16388 -24.642578,41.52148 -2.949416,11.35761 -2.185547,18.69532 -2.185547,18.69532 a 2.8349285,2.8349285 0 0 1 0.01563,0.2832 v 213.33398 a 2.8349285,2.8349285 0 0 1 -0.0078,0.19727 c 0,0 -2.681983,39.94759 26.205078,66.13281 29.11062,26.38788 64.121074,24.17383 64.121074,24.17383 z" />
      <glyph
         glyph-name=""
         unicode="r"
         id="glyph118"
         d="M 13.333984,601.89062 A 1.889765,1.889765 0 0 1 11.443359,600 V 200 A 1.889765,1.889765 0 0 1 13.333984,198.10938 1.889765,1.889765 0 0 1 15.222656,200 v 332.74414 c 26.335994,39.18316 78.67578,65.36523 131.443364,65.36524 h 64.77734 v -64.7754 a 1.889765,1.889765 0 0 1 1.89062,-1.89062 1.889765,1.889765 0 0 1 1.88868,1.89062 V 600 a 1.889954,1.889954 0 0 1 -1.88868,1.89062 h -66.66796 c -52.011422,0 -103.426831,-24.65384 -131.443364,-62.60351 V 600 a 1.889765,1.889765 0 0 1 -1.888672,1.89062 z"
         horiz-adv-x="320.00" />
      <glyph
         glyph-name=""
         unicode="s"
         id="glyph121"
         d="M 116.37891,601.89063 C 57.691574,602.31153 22.573201,570.07923 13.566406,533.30859 4.5588946,496.53503 21.701112,455.26586 65.988281,438.23633 L 225.93945,371.58984 a 1.889954,1.889954 0 0 1 0.0312,-0.0137 c 43.99997,-17.45281 57.10939,-59.76834 47.84961,-98.00195 -9.25977,-38.23361 -40.941,-71.93475 -87.14258,-71.68359 a 1.889954,1.889954 0 0 1 -0.0117,0 h -13.33204 a 1.889954,1.889954 0 0 1 -0.0176,0 C 112.69322,201.34598 62.428473,213.06934 14.115234,235.05273 a 1.889765,1.889765 0 0 1 -2.501953,-0.9375 1.889765,1.889765 0 0 1 0.9375,-2.50195 c 48.74836,-22.18138 99.660079,-34.0509 160.783199,-33.5039 h 13.33204 c 48.04673,-0.25631 81.22056,34.91266 90.82617,74.57421 9.60627,39.6643 -4.41095,84.272 -50.12891,102.40625 l -159.970702,66.6543 a 1.889954,1.889954 0 0 1 -0.04687,0.0195 c -42.693056,16.41658 -58.6989779,55.56917 -50.107427,90.64456 8.591551,35.07539 41.8143,66.11726 99.124999,65.70118 a 1.889954,1.889954 0 0 1 0.0156,0 h 25.90429 c 7.13093,0 56.92968,0.8107 100.03516,-21.10547 a 1.889765,1.889765 0 0 1 2.54101,0.82617 1.889765,1.889765 0 0 1 -0.82812,2.54101 c -44.18654,22.46584 -94.93458,21.51954 -101.74802,21.51954 h -25.89062 z"
         horiz-adv-x="360.00" />
      <glyph
         glyph-name=""
         unicode="t"
         id="glyph123"
         d="M 80,801.89062 A 1.889765,1.889765 0 0 1 78.109375,800 V 601.89062 H 13.333984 A 1.889765,1.889765 0 0 1 11.443359,600 1.889765,1.889765 0 0 1 13.333984,598.10938 H 78.109375 V 300 c 0,-30.54703 8.469022,-56.08082 25.548825,-73.95508 17.07982,-17.87425 42.66613,-27.93555 76.3418,-27.93554 h 33.33398 a 1.889765,1.889765 0 0 1 1.88868,1.89062 1.889765,1.889765 0 0 1 -1.88868,1.89062 H 180 c -32.92656,0 -57.33984,9.73934 -73.60938,26.76563 C 90.121085,245.68254 81.890625,270.14962 81.890625,300 V 598.10938 H 213.33398 a 1.889765,1.889765 0 0 1 1.88868,1.89062 1.889765,1.889765 0 0 1 -1.88868,1.89062 H 81.890625 V 800 A 1.889765,1.889765 0 0 1 80,801.89062 Z"
         horiz-adv-x="300.00" />
      <glyph
         glyph-name=""
         unicode="u"
         id="glyph126"
         d="m 13.333984,602.00586 a 1.889765,1.889765 0 0 1 -1.890625,-1.89063 V 300.4043 c 0,-54.51767 25.588299,-80.4846 51.095703,-92.3086 25.507405,-11.82399 50.937498,-9.86328 50.937498,-9.86328 l -0.14258,-0.006 H 280 a 1.889954,1.889954 0 0 1 1.89062,1.88867 v 400 A 1.889765,1.889765 0 0 1 280,602.00586 1.889765,1.889765 0 0 1 278.10937,600.11523 V 202.00586 H 113.33398 A 1.889954,1.889954 0 0 1 113.19141,202 c 0,0 -24.56996,-1.82816 -49.062504,9.52539 -24.492543,11.35355 -48.90625,35.52919 -48.90625,88.87891 v 299.71093 a 1.889765,1.889765 0 0 1 -1.888672,1.89063 z"
         horiz-adv-x="400.00" />
      <glyph
         glyph-name=""
         unicode="v"
         id="glyph128"
         d="m 12.736328,601.79297 a 1.889765,1.889765 0 0 1 -1.195312,-2.39063 l 133.199214,-400 a 1.889954,1.889954 0 0 1 3.58594,0 l 133.4668,400 a 1.889765,1.889765 0 0 1 -1.19531,2.39063 1.889765,1.889765 0 0 1 -2.39063,-1.19531 L 146.53516,205.97656 15.126953,600.59766 a 1.889765,1.889765 0 0 1 -2.390625,1.19531 z"
         horiz-adv-x="360.00" />
      <glyph
         glyph-name=""
         unicode="w"
         id="glyph130"
         d="m 413.73437,601.84766 a 1.889765,1.889765 0 0 1 -2.24804,-1.44727 L 325.86914,205.24023 214.97656,400.93164 a 1.889954,1.889954 0 0 1 -3.33398,-0.0859 L 113.92773,205.41406 15.166016,600.45898 a 1.889765,1.889765 0 0 1 -2.291016,1.375 1.889765,1.889765 0 0 1 -1.375,-2.29296 l 100,-400 a 1.889954,1.889954 0 0 1 3.52344,-0.38672 L 213.4375,395.98242 325.02344,199.06836 a 1.889954,1.889954 0 0 1 3.49023,0.53125 l 86.66602,400 a 1.889765,1.889765 0 0 1 -1.44532,2.24805 z"
         horiz-adv-x="500.00" />
      <glyph
         glyph-name=""
         unicode="x"
         id="glyph132"
         d="m 13.703125,601.85352 a 1.889765,1.889765 0 0 1 -1.417969,-0.28125 1.889765,1.889765 0 0 1 -0.523437,-2.6211 L 144.39648,400 11.761719,201.04883 a 1.889765,1.889765 0 0 1 0.523437,-2.6211 1.889765,1.889765 0 0 1 2.621094,0.52344 L 146.66797,396.5918 278.42773,198.95117 a 1.889765,1.889765 0 0 1 2.6211,-0.52344 1.889765,1.889765 0 0 1 0.52344,2.6211 L 148.9375,400 281.57227,598.95117 a 1.889765,1.889765 0 0 1 -0.52344,2.6211 1.889765,1.889765 0 0 1 -1.41992,0.28125 1.889765,1.889765 0 0 1 -1.20118,-0.80469 L 146.66797,403.4082 14.90625,601.04883 a 1.889765,1.889765 0 0 1 -1.203125,0.80469 z" />
      <glyph
         glyph-name=""
         unicode="y"
         id="glyph135"
         d="m 12.732422,601.79102 a 1.889765,1.889765 0 0 1 -1.191406,-2.39258 L 144.14258,204.20312 a 1.889765,1.889765 0 0 1 0.49804,-0.57226 L 87.554688,33.9707 C 84.860953,26.43905 80.366372,18.97427 69.541016,13.14648 58.715659,7.31871 41.412491,3.22266 13.333984,3.22266 A 1.889765,1.889765 0 0 1 11.443359,1.33398 1.889765,1.889765 0 0 1 13.333984,-0.5566 c 28.443945,0 46.349366,4.10395 57.998047,10.37496 11.648683,6.27101 16.893892,14.80587 19.78125,22.87891 a 1.889954,1.889954 0 0 1 0.01172,0.0332 l 190.66602,566.66601 a 1.889765,1.889765 0 0 1 -1.1875,2.39454 1.889765,1.889765 0 0 1 -2.39454,-1.1875 L 146.48242,209.10938 15.125,600.60156 a 1.889765,1.889765 0 0 1 -2.392578,1.18946 z"
         horiz-adv-x="380.00" />
      <glyph
         glyph-name=""
         unicode="z"
         id="glyph138"
         d="M 13.333984,601.89063 A 1.889765,1.889765 0 0 1 11.443359,600 1.889765,1.889765 0 0 1 13.333984,598.10938 H 276.46875 L 11.761719,201.04883 a 1.889954,1.889954 0 0 1 1.572265,-2.93945 H 280 A 1.889765,1.889765 0 0 1 281.89062,200 1.889765,1.889765 0 0 1 280,201.89063 H 16.865234 L 281.57227,598.95117 A 1.889954,1.889954 0 0 1 280,601.89063 Z" />
      <glyph
         glyph-name="CurlL"
         unicode="{"
         id="glyph140"
         d="m 180,868.55664 c -60.23295,0 -101.890625,-47.82862 -101.890625,-101.89062 V 600 C 78.109375,584.37293 66.899666,568.02291 53,555.69531 39.100334,543.36771 22.403558,535.22266 13.333984,535.22266 a 1.889954,1.889954 0 0 1 0,-3.7793 c 9.097029,0 25.780361,-7.93924 39.673828,-20.15625 C 66.90128,499.0701 78.109375,482.74386 78.109375,466.66602 V 233.33398 C 78.109375,178.84665 125.69589,131.44336 180,131.44336 h 46.66602 a 1.889765,1.889765 0 0 1 1.89062,1.89062 1.889765,1.889765 0 0 1 -1.89062,1.88868 H 180 c -52.09622,0 -98.109375,45.83295 -98.109375,98.11132 v 233.33204 c 0,17.8043 -12.007642,34.81324 -26.388672,47.45898 -10.438745,9.17916 -22.04833,16.09708 -31.902344,19.22852 9.861924,3.19966 21.469541,10.25758 31.908203,19.51562 C 69.882999,565.61848 81.890625,582.60163 81.890625,600 v 166.66602 c 0,52.12746 39.871625,98.11132 98.109375,98.11132 h 46.66602 a 1.889765,1.889765 0 0 1 1.89062,1.88868 1.889765,1.889765 0 0 1 -1.89062,1.89062 z" />
      <glyph
         glyph-name="Pipe"
         unicode="|"
         id="glyph142"
         d="M 26.666016,901.89062 A 1.889765,1.889765 0 0 1 24.777344,900 V 100 A 1.889765,1.889765 0 0 1 26.666016,98.10938 1.889765,1.889765 0 0 1 28.556641,100 v 800 a 1.889765,1.889765 0 0 1 -1.890625,1.89062 z" />
      <glyph
         glyph-name="CurlR"
         unicode="}"
         id="glyph144"
         d="m 13.359375,868.55664 a 1.889765,1.889765 0 0 1 -1.888672,-1.89062 1.889765,1.889765 0 0 1 1.888672,-1.88868 h 46.667969 c 58.237756,0 98.109376,-45.98386 98.109376,-98.11132 V 600 c 0,-17.39837 12.00567,-34.38152 26.38086,-47.13086 10.43926,-9.25857 22.04787,-16.31622 31.91015,-19.51562 -9.85401,-3.13144 -21.46555,-10.04936 -31.90429,-19.22852 -14.38103,-12.64574 -26.38672,-29.65468 -26.38672,-47.45898 V 233.33398 c 0,-52.27837 -46.01316,-98.11132 -98.109376,-98.11132 H 13.359375 a 1.889765,1.889765 0 0 1 -1.888672,-1.88868 1.889765,1.889765 0 0 1 1.888672,-1.89062 h 46.667969 c 54.304116,0 101.888676,47.40329 101.888676,101.89062 v 233.33204 c 0,16.07784 11.21004,32.40408 25.10351,44.62109 13.89347,12.21701 30.5768,20.15625 39.67383,20.15625 v 3.7793 c -9.06957,0 -25.7683,8.14505 -39.66797,20.47265 -13.89967,12.3276 -25.10937,28.67762 -25.10937,44.30469 v 166.66602 c 0,54.062 -41.65573,101.89062 -101.888676,101.89062 z"
         horiz-adv-x="340.00" />
      <glyph
         glyph-name="Tilde"
         unicode="~"
         id="glyph146"
         d="m 279.46289,468.47852 a 1.889765,1.889765 0 0 1 -1.125,-0.91016 c 0,0 -15.41452,-28.30767 -39.38672,-46.42969 -11.9861,-9.06101 -26.00241,-15.5195 -41.26758,-14.87304 -15.26516,0.64645 -31.99649,8.33836 -49.59961,28.3164 -18.07413,20.5126 -35.84913,28.90016 -52.273433,29.5957 C 79.386248,464.87328 64.529448,457.93795 52.101562,448.54297 27.245791,429.75301 11.671875,400.90039 11.671875,400.90039 a 1.889765,1.889765 0 0 1 0.759766,-2.5625 1.889765,1.889765 0 0 1 2.5625,0.76172 c 0,0 15.414515,28.30572 39.386718,46.42773 11.986102,9.06101 26.004369,15.51951 41.269532,14.87305 15.265159,-0.64646 31.994539,-8.33837 49.597659,-28.31641 18.07413,-20.51259 35.85109,-28.8982 52.27539,-29.59375 16.4243,-0.69554 31.27914,6.23979 43.70703,15.63477 24.85577,18.78996 40.43164,47.64063 40.43164,47.64063 a 1.889765,1.889765 0 0 1 -0.76172,2.5625 1.889765,1.889765 0 0 1 -1.4375,0.15039 z" />
      <glyph
         glyph-name="NBSP"
         unicode=""
         id="glyph148"
         d="" />
      <glyph
         glyph-name="ExclInv"
         unicode=""
         id="glyph149"
         d="m 13.333984,600.55664 a 1.889954,1.889954 0 0 1 -1.890625,-1.89062 v -40 a 1.889954,1.889954 0 0 1 1.890625,-1.88868 h 40 a 1.889954,1.889954 0 0 1 1.888672,1.88868 v 40 a 1.889954,1.889954 0 0 1 -1.888672,1.89062 z m 1.888672,-3.7793 h 36.220703 v -36.2207 H 15.222656 Z M 33.333984,401.88867 A 1.889765,1.889765 0 0 1 31.443359,400 V 0 A 1.889765,1.889765 0 0 1 33.333984,-1.8906 1.889765,1.889765 0 0 1 35.222656,0 v 400 a 1.889765,1.889765 0 0 1 -1.888672,1.88867 z" />
      <glyph
         glyph-name="Cents"
         unicode=""
         id="glyph152"
         d="M 180,701.89062 A 1.889765,1.889765 0 0 1 178.10938,700 v -98.10938 h -64.7754 C 52.373291,601.89062 11.443359,558.82446 11.443359,500 V 300 c 0,-28.91426 8.215427,-54.42303 25.154297,-72.70312 16.938871,-18.28011 42.537983,-29.1875 76.736324,-29.1875 h 64.7754 V 100 A 1.889765,1.889765 0 0 1 180,98.10938 1.889765,1.889765 0 0 1 181.89062,100 v 98.10938 H 280 A 1.889765,1.889765 0 0 1 281.89062,200 1.889765,1.889765 0 0 1 280,201.89062 H 181.89062 V 598.10938 H 280 A 1.889765,1.889765 0 0 1 281.89062,600 1.889765,1.889765 0 0 1 280,601.89062 H 181.89062 V 700 A 1.889765,1.889765 0 0 1 180,701.89062 Z M 113.33398,598.10938 h 64.7754 V 201.89062 h -64.7754 c -33.399057,0 -57.801212,10.5352 -73.962886,27.97657 C 23.209419,247.30854 15.222656,271.80048 15.222656,300 v 200 c 0,57.08889 38.913901,98.10937 98.111324,98.10938 z" />
      <glyph
         glyph-name="Pound"
         unicode=""
         id="glyph1"
         d="M 246.6582,800.9375 C 212.90801,800.78344 179.13549,789.46941 153.74805,767.02539 128.3606,744.58137 111.44336,710.96766 111.44336,666.66602 V 495.22266 H 13.333984 a 1.889765,1.889765 0 0 1 -1.890625,-1.88868 1.889765,1.889765 0 0 1 1.890625,-1.89062 H 111.44336 V 300 c 0,-55.46125 -47.410598,-98.10938 -98.109376,-98.10938 a 1.890625,1.890625 0 0 1 0,-3.78124 H 300 c 29.91692,0 55.44278,10.1442 73.44922,28.00585 18.00644,17.86167 28.4414,43.39707 28.4414,73.88477 A 1.889765,1.889765 0 0 1 400,301.89062 1.889765,1.889765 0 0 1 398.10938,300 c 0,-29.6281 -10.0743,-54.09188 -27.32227,-71.20117 C 353.53914,211.68954 329.065,201.89063 300,201.89062 H 39.699219 C 81.390832,213.64494 115.22266,252.18407 115.22266,300 v 191.44336 h 131.44336 a 1.889765,1.889765 0 0 1 1.89062,1.89062 1.889765,1.889765 0 0 1 -1.89062,1.88868 H 115.22266 v 171.44336 c 0,43.34335 16.41684,75.76845 41.02929,97.52734 24.61247,21.75889 57.50749,32.81458 90.42383,32.96484 32.91634,0.15026 65.80183,-10.60261 90.4082,-32.28125 24.60639,-21.67863 41.0254,-54.25237 41.0254,-98.21093 A 1.889765,1.889765 0 0 1 380,664.77734 a 1.889765,1.889765 0 0 1 1.89062,1.88868 c 0,44.90372 -16.91506,78.67475 -42.30859,101.04687 -25.39352,22.37212 -59.17362,33.37867 -92.92383,33.22461 z" />
      <glyph
         glyph-name="Currency"
         unicode=""
         id="glyph150"
         d="M 13.330078,681.89062 A 1.889765,1.889765 0 0 1 11.994141,681.33398 1.889765,1.889765 0 0 1 12,678.66016 l 91.56836,-91.17383 C 79.734568,563.1045 65.021484,529.76982 65.021484,492.99609 c 0,-36.52437 14.51955,-69.65165 38.068356,-93.98828 l -91.091793,-91.0039 a 1.889765,1.889765 0 0 1 -0.002,-2.67383 1.889765,1.889765 0 0 1 2.673828,0 L 105.75,396.32422 c 24.38169,-23.83607 57.71843,-38.55078 94.49414,-38.55078 36.82688,0 70.20657,14.75374 94.59766,38.64844 l 90.48437,-91.0879 a 1.889765,1.889765 0 0 1 2.67188,-0.008 1.889765,1.889765 0 0 1 0.01,2.67188 l -90.50976,91.11328 c 23.4906,24.32712 37.9707,57.41187 37.9707,93.88476 0,36.75547 -14.70031,70.0745 -38.51367,94.45313 l 91.04883,91.21484 a 1.889765,1.889765 0 0 1 -0.002,2.67383 1.889765,1.889765 0 0 1 -1.33789,0.55273 1.889765,1.889765 0 0 1 -1.33398,-0.55468 l -91.05664,-91.22461 c -24.34087,23.5727 -57.4844,38.10937 -94.0293,38.10937 -36.52653,0 -69.65516,-14.52247 -93.99219,-38.07422 l -91.585934,91.19336 a 1.889765,1.889765 0 0 1 -1.335938,0.55078 z M 200.24414,624.44141 c 72.61652,0 131.44336,-58.8288 131.44336,-131.44532 0,-72.6165 -58.82684,-131.44336 -131.44336,-131.44336 -72.61652,0 -131.443359,58.82686 -131.443359,131.44336 0,72.61652 58.826839,131.44532 131.443359,131.44532 z" />
      <glyph
         glyph-name="Yen"
         unicode=""
         id="glyph162"
         d="m 13.761719,801.83984 a 1.889765,1.889765 0 0 1 -1.425781,-0.23437 1.889765,1.889765 0 0 1 -0.607422,-2.60352 L 198.10938,499.46094 V 461.89062 H 100 A 1.889765,1.889765 0 0 1 98.109375,460 1.889765,1.889765 0 0 1 100,458.10938 h 98.10938 V 301.89062 H 100 A 1.889765,1.889765 0 0 1 98.109375,300 1.889765,1.889765 0 0 1 100,298.10938 h 98.10938 V 200 A 1.889765,1.889765 0 0 1 200,198.10938 1.889765,1.889765 0 0 1 201.89062,200 v 98.10938 H 300 A 1.889765,1.889765 0 0 1 301.89062,300 1.889765,1.889765 0 0 1 300,301.89062 H 201.89062 V 458.10938 H 300 A 1.889765,1.889765 0 0 1 301.89062,460 1.889765,1.889765 0 0 1 300,461.89062 h -98.10938 v 37.60352 l 173.07813,299.56055 a 1.889765,1.889765 0 0 1 -0.68945,2.58203 1.889765,1.889765 0 0 1 -2.58203,-0.69141 L 199.93945,503.67383 14.9375,800.99805 a 1.889765,1.889765 0 0 1 -1.175781,0.84179 z" />
      <glyph
         glyph-name="BrokeBar"
         unicode=""
         id="glyph167"
         d="M 13.333984,901.89062 A 1.889765,1.889765 0 0 1 11.443359,900 V 600 A 1.889765,1.889765 0 0 1 13.333984,598.10938 1.889765,1.889765 0 0 1 15.222656,600 v 300 a 1.889765,1.889765 0 0 1 -1.888672,1.89062 z m 0,-500 A 1.889765,1.889765 0 0 1 11.443359,400 V 100 A 1.889765,1.889765 0 0 1 13.333984,98.10938 1.889765,1.889765 0 0 1 15.222656,100 v 300 a 1.889765,1.889765 0 0 1 -1.888672,1.89062 z" />
      <glyph
         glyph-name="Section"
         unicode=""
         id="glyph170"
         d="m 127.0332,841.37695 c -6.29359,-0.0833 -11.97977,-0.23241 -16.94922,-0.35547 h 0.0547 C 55.010693,841.26808 23.484571,803.91477 16.628906,761.56055 9.7732414,719.20631 27.214089,671.55777 69.292969,650.77148 L 114.08008,628.37891 C 58.491573,626.51993 24.943028,596.93014 15.730469,560.71484 6.1914547,523.21624 22.56267,478.97024 65.65625,451.73633 a 1.889954,1.889954 0 0 1 0.166016,-0.0937 L 252.48828,358.31055 a 1.889954,1.889954 0 0 1 0.008,-0.004 c 40.39124,-19.95262 57.23022,-65.8813 50.60743,-106.79687 -6.62281,-40.91559 -36.33361,-76.52611 -89.76172,-76.28711 a 1.889954,1.889954 0 0 1 -0.0547,0 c -40.39476,-0.97658 -130.333,7.94545 -199.160157,39.82617 a 1.889765,1.889765 0 0 1 -2.507812,-0.92188 1.889765,1.889765 0 0 1 0.919921,-2.50781 c 69.694829,-32.28262 159.694948,-41.16199 200.792968,-40.17578 55.12303,-0.24294 86.64662,37.11071 93.50195,79.46289 6.85525,42.35158 -10.5831,89.99485 -52.65625,110.7832 l -0.008,0.004 -44.78515,22.39258 c 55.58746,1.85961 89.13716,31.44919 98.34961,67.66406 9.53902,37.49861 -6.83416,81.74459 -49.92774,108.97852 a 1.889954,1.889954 0 0 1 -0.16406,0.0937 L 70.974609,654.15625 a 1.889954,1.889954 0 0 1 -0.0078,0.004 C 30.57555,674.11269 13.73853,720.03949 20.361328,760.95508 c 6.622799,40.91558 36.331646,76.5261 89.759762,76.28711 a 1.889954,1.889954 0 0 1 0.0566,0 c 39.79085,0.98528 124.51289,3.57862 199.00196,-39.74414 a 1.889765,1.889765 0 0 1 2.58398,0.68359 1.889765,1.889765 0 0 1 -0.68359,2.58398 c -66.16841,38.4835 -139.99173,41.19419 -184.04688,40.61133 z m -6.33203,-216.30859 135.15039,-67.57617 c 41.84945,-26.48237 57.32359,-69.01871 48.21875,-104.81055 -9.10966,-35.81081 -42.71457,-65.13507 -100.60156,-64.99414 a 1.889765,1.889765 0 0 1 -0.70508,-0.29102 L 67.623047,454.96875 c -41.85785,26.48186 -57.336119,69.01944 -48.230469,104.81445 9.109669,35.81083 42.716532,65.13508 100.603512,64.99414 a 1.889765,1.889765 0 0 1 0.70508,0.29102 z" />
      <glyph
         glyph-name="Diaeresis"
         unicode=""
         id="glyph173"
         d="M 13.333984,801.89062 A 1.889954,1.889954 0 0 1 11.443359,800 v -26.66602 a 1.889954,1.889954 0 0 1 1.890625,-1.89062 H 40 a 1.889954,1.889954 0 0 1 1.890625,1.89062 V 800 A 1.889954,1.889954 0 0 1 40,801.89062 Z m 186.666016,0 A 1.889954,1.889954 0 0 1 198.11133,800 V 773.33398 A 1.889954,1.889954 0 0 1 200,771.44336 h 26.66797 a 1.889954,1.889954 0 0 1 1.88867,1.89062 V 800 a 1.889954,1.889954 0 0 1 -1.88867,1.89062 z M 15.222656,798.10938 H 38.109375 V 775.22266 H 15.222656 Z m 186.667964,0 h 22.88672 v -22.88672 h -22.88672 z" />
      <glyph
         glyph-name="Copyright"
         unicode=""
         id="glyph176"
         d="m 276.64648,742.16797 c -148.29693,0 -268.5546831,-120.25971 -268.5546831,-268.55664 0,-148.29694 120.2577531,-268.55664 268.5546831,-268.55664 148.29695,0 268.55665,120.2597 268.55664,268.55664 0,148.29693 -120.25969,268.55664 -268.55664,268.55664 z m 0,-3.7793 c 146.25434,0 264.77735,-118.52302 264.77735,-264.77734 0,-146.25434 -118.52301,-264.77735 -264.77735,-264.77735 -146.25432,0 -264.775386,118.52301 -264.775386,264.77735 0,146.25432 118.521066,264.77734 264.775386,264.77734 z m -25.8457,-129.375 c -24.38396,0 -42.06091,-6.93403 -53.54492,-19.09961 -11.48401,-12.16558 -16.64453,-29.36643 -16.64453,-49.45703 V 407.12305 c 0,-22.77203 5.90207,-39.96922 16.66797,-51.45899 10.76589,-11.48976 26.28081,-17.09765 44.89843,-17.09765 h 91.15625 a 1.889765,1.889765 0 0 1 1.88868,1.89062 1.889765,1.889765 0 0 1 -1.88868,1.89063 h -91.15625 c -17.86574,0 -32.18951,5.28019 -42.14062,15.90039 -9.95111,10.6202 -15.64648,26.75381 -15.64649,48.875 v 133.33398 c 0,19.44555 4.96179,35.57963 15.61329,46.86328 10.65149,11.28365 27.12414,17.91406 50.79687,17.91407 h 82.5332 a 1.889765,1.889765 0 0 1 1.88868,1.88867 1.889765,1.889765 0 0 1 -1.88868,1.89062 z" />
      <glyph
         glyph-name="Fem.Ord.Ind."
         unicode=""
         id="glyph179"
         d="M 13.511719,801.89062 A 1.889765,1.889765 0 0 1 11.621094,800 a 1.889765,1.889765 0 0 1 1.890625,-1.89062 h 99.822261 c 20.30972,0 36.42233,-6.67929 47.5254,-18.05079 11.10307,-11.37148 17.25,-27.51344 17.25,-46.72461 V 668.55664 H 66.666016 c -72.2187703,0 -71.7268811,-137.11328 0,-137.11328 H 180 a 1.889954,1.889954 0 0 1 1.89062,1.89062 v 133.33204 66.66796 c 0,20.02083 -6.45928,37.21146 -18.32617,49.36524 -11.86689,12.15378 -29.08696,19.1914 -50.23047,19.1914 z M 66.666016,664.77734 H 178.10938 V 535.22266 H 66.666016 c -66.87923197,0 -67.4065054,129.55468 0,129.55468 z M 13.333984,402.02344 a 1.889765,1.889765 0 0 1 -1.890625,-1.89063 1.889765,1.889765 0 0 1 1.890625,-1.88867 H 180 a 1.889765,1.889765 0 0 1 1.89062,1.88867 A 1.889765,1.889765 0 0 1 180,402.02344 Z" />
      <glyph
         glyph-name="L.DoublePoint"
         unicode=""
         id="glyph182"
         d="m 146.45703,601.87891 a 1.889765,1.889765 0 0 1 -1.26562,-0.69922 L 11.857422,434.51367 a 1.889954,1.889954 0 0 1 0,-2.36133 L 145.19141,265.48633 a 1.889765,1.889765 0 0 1 2.65625,-0.29492 1.889765,1.889765 0 0 1 0.29492,2.65625 L 15.753906,433.33398 148.14258,598.82031 a 1.889765,1.889765 0 0 1 -0.29492,2.65625 1.889765,1.889765 0 0 1 -1.39063,0.40235 z m 184,0 a 1.889765,1.889765 0 0 1 -1.26562,-0.69922 L 195.85742,434.51367 a 1.889954,1.889954 0 0 1 0,-2.36133 L 329.19141,265.48633 a 1.889765,1.889765 0 0 1 2.65625,-0.29492 1.889765,1.889765 0 0 1 0.29492,2.65625 L 199.75391,433.33398 332.14258,598.82031 a 1.889765,1.889765 0 0 1 -0.29492,2.65625 1.889765,1.889765 0 0 1 -1.39063,0.40235 z" />
      <glyph
         glyph-name="Not Sign"
         unicode=""
         id="glyph185"
         d="m 13.333984,435.22266 a 1.889765,1.889765 0 0 1 -1.890625,-1.88868 1.889765,1.889765 0 0 1 1.890625,-1.89062 H 391.44336 V 213.33398 a 1.889765,1.889765 0 0 1 1.89062,-1.89062 1.889765,1.889765 0 0 1 1.88868,1.89062 v 220 a 1.889954,1.889954 0 0 1 -1.88868,1.88868 z" />
      <glyph
         glyph-name="Soft-Hyphen"
         unicode=""
         id="glyph187" />
      <glyph
         glyph-name="Registered"
         unicode=""
         id="glyph188"
         d="m 276.64648,742.16797 c -148.29693,0 -268.5546831,-120.25971 -268.5546831,-268.55664 0,-148.29694 120.2577531,-268.55664 268.5546831,-268.55664 148.29695,0 268.55665,120.2597 268.55664,268.55664 0,148.29693 -120.25969,268.55664 -268.55664,268.55664 z m 0,-3.7793 c 146.25434,0 264.77735,-118.52302 264.77735,-264.77734 0,-146.25434 -118.52301,-264.77735 -264.77735,-264.77735 -146.25432,0 -264.775386,118.52301 -264.775386,264.77735 0,146.25432 118.521066,264.77734 264.775386,264.77734 z m -66.14453,-137.375 a 1.889954,1.889954 0 0 1 -1.89062,-1.89062 V 472.45703 340.66016 a 1.889765,1.889765 0 0 1 1.89062,-1.89063 1.889765,1.889765 0 0 1 1.88867,1.89063 v 129.90625 h 80.41211 l 65.61133,-130.08399 a 1.889765,1.889765 0 0 1 2.53906,-0.83594 1.889765,1.889765 0 0 1 0.83594,2.53711 l -64.75195,128.38282 h 4.62109 c 18.54856,0 34.02444,4.54038 44.83399,15.0332 10.80955,10.49282 16.73047,26.75141 16.73047,49.52344 v 1.33398 c 0,20.0906 -5.18161,36.35326 -16.70313,47.51758 -11.52152,11.16432 -29.15479,17.03906 -53.48633,17.03906 z m 1.88867,-3.77929 h 80.64258 c 23.72516,0 40.24345,-5.6897 50.85742,-15.97461 10.61399,-10.28492 15.55274,-25.35719 15.55274,-44.80274 v -1.33398 c 0,-22.12119 -5.67458,-37.19535 -15.58203,-46.8125 -9.90745,-9.61715 -24.2683,-13.96289 -42.20313,-13.96289 h -89.26758 z" />
      <glyph
         glyph-name="Macron"
         unicode=""
         id="glyph190"
         d="M 13.333984,801.89063 A 1.889765,1.889765 0 0 1 11.443359,800 1.889765,1.889765 0 0 1 13.333984,798.10938 H 246.66602 a 1.889765,1.889765 0 0 1 1.89062,1.89062 1.889765,1.889765 0 0 1 -1.89062,1.89063 z" />
      <glyph
         glyph-name="Degrees"
         unicode=""
         id="glyph192"
         d="m 114.21094,801.42188 c -56.249726,0 -101.890627,-45.64091 -101.890627,-101.89063 0,-56.24972 45.640901,-101.89062 101.890627,-101.89062 56.24972,0 101.88867,45.6409 101.88867,101.89062 0,56.24972 -45.63895,101.89063 -101.88867,101.89063 z m 0,-3.78125 c 54.20711,0 98.10937,-43.90226 98.10937,-98.10938 0,-54.20712 -43.90226,-98.10938 -98.10937,-98.10937 -54.207118,0 -98.111331,43.90225 -98.111331,98.10937 0,54.20712 43.904213,98.10937 98.111331,98.10938 z" />
      <glyph
         glyph-name="PlusMinus"
         unicode=""
         id="glyph194"
         d="M 213.33398,721.89062 A 1.889765,1.889765 0 0 1 211.44336,720 V 521.89062 H 13.333984 A 1.889765,1.889765 0 0 1 11.443359,520 1.889765,1.889765 0 0 1 13.333984,518.10938 H 211.44336 V 320 a 1.889765,1.889765 0 0 1 1.89062,-1.89062 1.889765,1.889765 0 0 1 1.88868,1.89062 v 198.10938 h 198.11132 a 1.889765,1.889765 0 0 1 1.88868,1.89062 1.889765,1.889765 0 0 1 -1.88868,1.89062 H 215.22266 V 720 a 1.889765,1.889765 0 0 1 -1.88868,1.89062 z M 13.333984,215.22266 a 1.889765,1.889765 0 0 1 -1.890625,-1.88868 1.889765,1.889765 0 0 1 1.890625,-1.89062 H 413.33398 a 1.889765,1.889765 0 0 1 1.88868,1.89062 1.889765,1.889765 0 0 1 -1.88868,1.88868 z" />
      <glyph
         glyph-name="Super 2"
         unicode=""
         id="glyph198"
         d="M 113.68555,960.43164 C 95.637303,959.83454 77.607276,955.18956 61.740234,946.09766 36.352968,931.55061 16.592214,905.52519 11.460938,866.91602 a 1.889765,1.889765 0 0 1 1.623046,-2.12305 1.889765,1.889765 0 0 1 2.123047,1.625 c 4.994343,37.57884 23.9709,62.39544 48.41211,76.40039 24.441209,14.00495 54.438779,17.10286 81.236329,10.72461 26.79754,-6.37826 50.30385,-22.18337 62.04492,-45.76953 11.72883,-23.56158 11.90685,-55.04606 -8.51172,-93.4336 L 11.841797,574.49414 a 1.889954,1.889954 0 0 1 1.492187,-3.05078 H 213.33398 a 1.889765,1.889765 0 0 1 1.88868,1.89062 1.889765,1.889765 0 0 1 -1.88868,1.88868 H 17.195312 L 201.49219,812.17383 a 1.889954,1.889954 0 0 1 0.17578,0.27148 c 20.89295,39.21156 20.9519,72.22909 8.61523,97.01172 -12.33666,24.78263 -36.8711,41.17304 -64.55273,47.76172 -10.38061,2.47076 -21.21598,3.57115 -32.04492,3.21289 z" />
      <glyph
         glyph-name="Super 3"
         unicode=""
         id="glyph200"
         d="M 13.333984,961.89062 A 1.889765,1.889765 0 0 1 11.443359,960 a 1.889765,1.889765 0 0 1 1.890625,-1.89063 h 99.999996 c 35.25753,0 60.65613,-11.8824 77.14844,-29.60546 16.49232,-17.72307 24.09828,-41.38676 23.33203,-65.10938 -1.53249,-47.44523 -36.29196,-94.83789 -100.48047,-94.83789 H 65.074219 a 1.889954,1.889954 0 0 1 0,-3.7793 h 48.259761 1.33204 c 33.64499,0 58.65185,-11.8707 75.32812,-29.61328 16.67627,-17.74258 25.01671,-41.43826 24.94336,-65.1582 -0.0734,-23.71994 -8.56046,-47.41638 -25.43945,-65.16211 -16.87899,-17.74573 -42.14654,-29.62109 -76.16407,-29.62109 H 13.333984 a 1.889765,1.889765 0 0 1 -1.890625,-1.88868 1.889765,1.889765 0 0 1 1.890625,-1.89062 h 99.999996 c 34.90106,0 61.30385,12.29069 78.9043,30.79492 17.60045,18.50424 26.40241,43.14252 26.47852,67.75586 0.0761,24.61334 -8.57364,49.25043 -25.96875,67.75781 -13.67826,14.55288 -32.84983,25.15874 -57.17578,29.07227 51.98641,9.69688 80.61838,53.06869 82.01953,96.44726 0.79493,24.61067 -7.10146,49.27974 -24.3418,67.80664 -17.24034,18.52691 -43.80528,30.8125 -79.91602,30.8125 z" />
      <glyph
         glyph-name="Accute Accent"
         unicode=""
         id="glyph202"
         d="m 146.71484,995.22266 a 1.889765,1.889765 0 0 1 -1.34961,-0.51954 L 12.03125,868.03711 a 1.889765,1.889765 0 0 1 -0.06836,-2.67188 1.889765,1.889765 0 0 1 2.671875,-0.0684 L 147.96875,991.96289 a 1.889765,1.889765 0 0 1 0.0684,2.67188 1.889765,1.889765 0 0 1 -1.32227,0.58789 z" />
      <glyph
         glyph-name="Micro"
         unicode=""
         id="glyph204"
         d="M 13.333984,601.86328 A 1.889954,1.889954 0 0 1 11.443359,600 V 333.33398 11.88672 a 1.889765,1.889765 0 0 1 1.890625,-1.89063 1.889765,1.889765 0 0 1 1.888672,1.89063 v 287.28125 c 6.286187,-27.87143 20.127878,-50.05726 38.529297,-66.25 25.390856,-22.34326 59.165027,-33.4707 92.914067,-33.4707 33.74903,0 67.52516,11.12744 92.91601,33.4707 18.42557,16.214 32.28236,38.43424 38.55664,66.35742 0.15672,-31.56543 10.29148,-56.88238 28.0586,-74.25976 C 324.10341,207.50227 349.63668,198.10937 380,198.10938 A 1.889765,1.889765 0 0 1 381.89062,200 1.889765,1.889765 0 0 1 380,201.89063 c -29.58622,0 -54.05374,9.09695 -71.16016,25.82812 C 291.73342,244.44992 281.89062,268.88948 281.89062,300 V 333.33398 600 a 1.890625,1.890625 0 0 1 -3.78125,0 V 333.33398 c 0,-43.52136 -16.41629,-75.92279 -41.02539,-97.57812 -24.60909,-21.65533 -57.5004,-32.5293 -90.41796,-32.5293 -32.91757,0 -65.808879,10.87397 -90.417973,32.5293 -24.609094,21.65533 -41.025391,54.05676 -41.025391,97.57812 V 600 a 1.889954,1.889954 0 0 1 -1.888672,1.86328 z" />
      <glyph
         glyph-name="Pilcrow"
         unicode=""
         id="glyph206"
         d="m 200,802.01367 a 1.333335,1.333335 0 0 1 -0.68164,-0.67969 h -17.46289 l 0.0606,-0.002 c 0,0 -42.41995,1.94088 -84.890629,-18.09961 C 54.554665,763.19198 12,720.90983 12,633.33398 12,545.76761 53.613977,503.51582 95.160156,483.50195 136.61251,463.53328 177.95576,465.45217 178.14258,465.46094 l 20.52344,-0.0312 V 200 A 1.333335,1.333335 0 0 1 200,198.66602 1.333335,1.333335 0 0 1 201.33398,200 v 265.42578 l 144,-0.2168 V 200 a 1.333335,1.333335 0 0 1 1.33204,-1.33398 A 1.333335,1.333335 0 0 1 348,200 v 266.53711 332.12891 h 52 A 1.333335,1.333335 0 0 1 401.33398,800 1.333335,1.333335 0 0 1 400,801.33398 H 346.66602 200.68164 A 1.333335,1.333335 0 0 1 200,802.01367 Z m -18.20312,-3.3457 a 1.3334684,1.3334684 0 0 1 0.0586,-0.002 h 16.81055 V 468.0957 l -20.51954,0.0312 a 1.3334684,1.3334684 0 0 1 -0.0664,-0.002 c 0,0 -40.90487,-1.90345 -81.763674,17.7793 -40.858804,19.68274 -81.65039,60.70384 -81.65039,147.42968 0,86.71639 41.707372,127.76671 83.498046,147.48633 41.790678,19.71962 83.632818,17.84766 83.632818,17.84766 z m 19.5371,-0.002 h 144 V 467.875 l -144,0.2168 z" />
      <glyph
         glyph-name="Middle Dot"
         unicode=""
         id="glyph210"
         d="M 13.333984,481.33398 A 1.3334684,1.3334684 0 0 1 12,480 V 453.33398 A 1.3334684,1.3334684 0 0 1 13.333984,452 H 40 a 1.3334684,1.3334684 0 0 1 1.333984,1.33398 V 480 A 1.3334684,1.3334684 0 0 1 40,481.33398 Z m 1.332032,-2.66796 h 24 v -24 h -24 z" />
      <glyph
         glyph-name="Cedilla"
         unicode=""
         id="glyph212"
         d="M 13.333984,201.33398 A 1.333335,1.333335 0 0 1 12,200 V 133.33398 A 1.3334684,1.3334684 0 0 1 13.333984,132 C 60.538076,132 83.624794,100.01933 83.580078,68.00195 83.535362,35.98457 60.353259,4 13.333984,4 A 1.333335,1.333335 0 0 1 12,2.66602 1.333335,1.333335 0 0 1 13.333984,1.33398 c 48.238577,0 72.865581,33.34818 72.91211,66.66407 0.04609,33.00065 -24.067111,65.98715 -71.580078,66.60937 V 200 a 1.333335,1.333335 0 0 1 -1.332032,1.33398 z" />
      <glyph
         glyph-name="Super 1"
         unicode=""
         id="glyph214"
         d="m 80.546875,961.21484 a 1.3334684,1.3334684 0 0 1 -1.431641,-0.21679 L 12.449219,901.97461 a 1.333335,1.333335 0 0 1 -0.113281,-1.88086 1.333335,1.333335 0 0 1 1.880859,-0.11523 l 64.449219,57.05859 V 574.66602 H 13.333984 A 1.333335,1.333335 0 0 1 12,573.33398 1.333335,1.333335 0 0 1 13.333984,572 H 80 146.66602 a 1.333335,1.333335 0 0 1 1.33398,1.33398 1.333335,1.333335 0 0 1 -1.33398,1.33204 H 81.333984 V 960 a 1.3334684,1.3334684 0 0 1 -0.787109,1.21484 z" />
      <glyph
         glyph-name="Maculine Ordinal"
         unicode=""
         id="glyph217"
         d="m 96.666016,801.13672 c -21.138372,0 -42.294292,-7.2511 -58.191407,-21.80078 C 22.577495,764.78624 12,742.92495 12,714 v -86.66602 c 0,-28.92495 10.577717,-50.73023 26.476562,-65.20507 15.898847,-14.47486 37.056274,-21.63323 58.19336,-21.57227 21.137088,0.061 42.291278,7.34073 58.187498,21.84375 15.89623,14.50303 26.47656,36.24624 26.47656,64.93359 V 714 c 0,28.92495 -10.57748,50.78624 -26.4746,65.33594 -15.89712,14.54968 -37.05499,21.80078 -58.193364,21.80078 z m 0,-2.66602 c 20.528214,0 41.039764,-7.05002 56.392574,-21.10156 C 168.41142,763.31761 178.66602,742.27748 178.66602,714 v -86.66602 c 0,-28.03439 -10.25176,-48.95482 -25.60547,-62.96289 -15.35372,-14.00806 -35.86894,-21.08922 -56.398441,-21.14843 -20.529496,-0.0592 -41.037579,6.90275 -56.388671,20.8789 -15.351092,13.97616 -25.607422,34.95494 -25.607422,63.23242 V 714 c 0,28.27748 10.256551,49.31761 25.609375,63.36914 15.352822,14.05154 35.862412,21.10156 56.390625,21.10156 z M 13.333984,417.33398 A 1.333335,1.333335 0 0 1 12,416 1.333335,1.333335 0 0 1 13.333984,414.66602 H 180 A 1.333335,1.333335 0 0 1 181.33398,416 1.333335,1.333335 0 0 1 180,417.33398 Z" />
      <glyph
         glyph-name="R.DoublePoint"
         unicode=""
         id="glyph220"
         d="m 13.541016,601.87891 a 1.889765,1.889765 0 0 1 -1.388672,-0.40235 1.889765,1.889765 0 0 1 -0.294922,-2.65625 L 144.24609,433.33398 11.857422,267.84766 a 1.889765,1.889765 0 0 1 0.294922,-2.65625 1.889765,1.889765 0 0 1 2.65625,0.29492 L 148.14258,432.15234 a 1.889954,1.889954 0 0 1 0,2.36133 L 14.808594,601.17969 a 1.889765,1.889765 0 0 1 -1.267578,0.69922 z m 184.001954,0 a 1.889765,1.889765 0 0 1 -1.39063,-0.40235 1.889765,1.889765 0 0 1 -0.29492,-2.65625 L 328.24609,433.33398 195.85742,267.84766 a 1.889765,1.889765 0 0 1 0.29492,-2.65625 1.889765,1.889765 0 0 1 2.65625,0.29492 l 133.33399,166.66601 a 1.889954,1.889954 0 0 1 0,2.36133 L 198.80859,601.17969 a 1.889765,1.889765 0 0 1 -1.26562,0.69922 z" />
      <glyph
         glyph-name="Quarter Fraction"
         unicode=""
         id="glyph223"
         d="m 412.85547,801.24414 a 1.333335,1.333335 0 0 1 -0.74024,-0.70312 l -266.66601,-600 a 1.333335,1.333335 0 0 1 0.67578,-1.75977 1.333335,1.333335 0 0 1 1.75977,0.67773 l 266.66601,600 a 1.333335,1.333335 0 0 1 -0.67578,1.75977 1.333335,1.333335 0 0 1 -1.01953,0.0254 z m -299.03125,-0.004 a 1.3334684,1.3334684 0 0 1 -1.46289,-0.32812 L 12.361328,694.24609 a 1.333335,1.333335 0 0 1 0.06055,-1.88476 1.333335,1.333335 0 0 1 1.884766,0.0606 L 112,796.62695 V 467.0957 a 1.333335,1.333335 0 0 1 1.33398,-1.33398 1.333335,1.333335 0 0 1 1.33204,1.33398 V 800 a 1.3334684,1.3334684 0 0 1 -0.8418,1.24023 z m 319.7539,-266.5957 a 1.333335,1.333335 0 0 1 -1.55468,-1.06641 l -40,-213.33203 a 1.3334684,1.3334684 0 0 1 1.31054,-1.58007 H 558.66602 V 200 A 1.333335,1.333335 0 0 1 560,198.66602 1.333335,1.333335 0 0 1 561.33398,200 v 118.66602 h 45.33204 A 1.333335,1.333335 0 0 1 608,320 a 1.333335,1.333335 0 0 1 -1.33398,1.33398 H 561.33398 V 400 A 1.333335,1.333335 0 0 1 560,401.33398 1.333335,1.333335 0 0 1 558.66602,400 V 321.33398 H 394.94141 l 39.70312,211.75391 a 1.333335,1.333335 0 0 1 -1.06641,1.55664 z" />
      <glyph
         glyph-name="Half Fraction"
         unicode=""
         id="glyph229"
         d="m 412.85547,801.24414 a 1.333335,1.333335 0 0 1 -0.74024,-0.70312 l -266.66601,-600 a 1.333335,1.333335 0 0 1 0.67578,-1.75977 1.333335,1.333335 0 0 1 1.75977,0.67773 l 266.66601,600 a 1.333335,1.333335 0 0 1 -0.67578,1.75977 1.333335,1.333335 0 0 1 -1.01953,0.0254 z m -299.03125,-0.004 a 1.3334684,1.3334684 0 0 1 -1.46289,-0.32812 L 12.361328,694.24609 a 1.333335,1.333335 0 0 1 0.06055,-1.88476 1.333335,1.333335 0 0 1 1.884766,0.0606 L 112,796.62695 V 467.0957 a 1.333335,1.333335 0 0 1 1.33398,-1.33398 1.333335,1.333335 0 0 1 1.33204,1.33398 V 800 a 1.3334684,1.3334684 0 0 1 -0.8418,1.24023 z M 500,534.66602 c -36.21182,0 -58.37209,-12.84538 -71.31055,-29.48633 C 415.75101,488.53872 412,468.26282 412,453.33398 A 1.333335,1.333335 0 0 1 413.33398,452 a 1.333335,1.333335 0 0 1 1.33204,1.33398 c 0,14.4794 3.68343,34.20208 16.1289,50.20899 C 443.2404,519.54987 464.41453,532 500,532 c 43.79081,0 69.67774,-27.90622 77.57422,-63.35156 7.89648,-35.44535 -2.50232,-78.35778 -31.84961,-107.70508 a 1.3334684,1.3334684 0 0 1 -0.082,-0.0898 l -133.33399,-160 a 1.3334684,1.3334684 0 0 1 1.02539,-2.1875 H 580 A 1.333335,1.333335 0 0 1 581.33398,200 1.333335,1.333335 0 0 1 580,201.33398 H 416.17969 l 131.49609,157.79297 0.0156,0.0195 c 29.97592,30.03945 40.58188,73.74312 32.48632,110.08204 -8.10332,36.37382 -35.24535,65.4375 -80.17773,65.4375 z" />
      <glyph
         glyph-name="Three-Quarter Fraction"
         unicode=""
         id="glyph233"
         d="M 13.333984,801.33398 A 1.333335,1.333335 0 0 1 12,800 a 1.333335,1.333335 0 0 1 1.333984,-1.33398 h 93.332036 c 26.0824,0 45.54608,-10.22422 58.61132,-25.57227 13.06525,-15.34805 19.69299,-35.88174 19.75977,-56.43164 0.0668,-20.5499 -6.42772,-41.07894 -19.45703,-56.42383 -13.02931,-15.34488 -32.55731,-25.57226 -58.91406,-25.57226 H 80 A 1.3334684,1.3334684 0 0 1 80,632 h 26.66602 c 28.04545,0 48.09062,-10.23996 61.03515,-25.56836 12.94453,-15.32839 18.77408,-35.83267 17.99219,-56.38086 -0.78189,-20.54819 -8.18151,-41.10162 -21.54688,-56.4668 C 150.78113,478.21882 131.49944,468 106.66602,468 H 13.333984 A 1.333335,1.333335 0 0 1 12,466.66602 a 1.333335,1.333335 0 0 1 1.333984,-1.33204 h 93.332036 c 25.56825,0 45.67485,10.61524 59.49218,26.5 13.81734,15.88478 21.39563,36.99685 22.19922,58.11524 0.80359,21.11839 -5.17371,42.28159 -18.61914,58.20312 -10.83671,12.83241 -26.62339,22.09277 -47.33203,25.2461 19.31887,3.28249 34.47373,12.47245 45.20703,25.11328 13.50495,15.90505 20.16042,37.04347 20.0918,58.16016 -0.0686,21.11667 -6.85978,42.24849 -20.39649,58.15039 -13.5367,15.90188 -33.85958,26.51171 -60.64257,26.51171 z m 399.521486,-0.0898 a 1.333335,1.333335 0 0 1 -0.74024,-0.70312 l -266.66601,-600 a 1.333335,1.333335 0 0 1 0.67578,-1.75977 1.333335,1.333335 0 0 1 1.75977,0.67773 l 266.66601,600 a 1.333335,1.333335 0 0 1 -0.67578,1.75977 1.333335,1.333335 0 0 1 -1.01953,0.0254 z m 20.72265,-266.59961 a 1.333335,1.333335 0 0 1 -1.55468,-1.06641 l -40,-213.33203 a 1.3334684,1.3334684 0 0 1 1.31054,-1.58007 H 558.66602 V 200 A 1.333335,1.333335 0 0 1 560,198.66602 1.333335,1.333335 0 0 1 561.33398,200 v 118.66602 h 45.33204 A 1.333335,1.333335 0 0 1 608,320 a 1.333335,1.333335 0 0 1 -1.33398,1.33398 H 561.33398 V 400 A 1.333335,1.333335 0 0 1 560,401.33398 1.333335,1.333335 0 0 1 558.66602,400 V 321.33398 H 394.94141 l 39.70312,211.75391 a 1.333335,1.333335 0 0 1 -1.06641,1.55664 z" />
      <glyph
         glyph-name="Inv. Question"
         unicode=""
         id="glyph238"
         d="M 133.33398,601.33398 A 1.3334684,1.3334684 0 0 1 132,600 V 573.33398 A 1.3334684,1.3334684 0 0 1 133.33398,572 H 160 a 1.3334684,1.3334684 0 0 1 1.33398,1.33398 V 600 A 1.3334684,1.3334684 0 0 1 160,601.33398 Z m 1.33204,-2.66796 h 24 v -24 h -24 z m 12,-197.33204 A 1.333335,1.333335 0 0 1 145.33398,400 v -80 c 0,-43.66874 -32.7523,-85.53161 -66.277339,-119.05664 a 1.3334684,1.3334684 0 0 1 -0.166016,-0.20313 C 67.959031,184.34285 51.38207,172.52619 37.378906,158.14844 23.375742,143.77067 12,126.66722 12,100 12,78.39185 20.819991,53.46463 37.894531,33.85742 54.969072,14.25021 80.373059,0 113.33398,0 197.13301,0 235.88195,13.19254 280.51953,32.10547 a 1.333335,1.333335 0 0 1 0.70899,1.74805 1.333335,1.333335 0 0 1 -1.74805,0.70703 C 234.94154,15.68942 196.85447,2.66602 113.33398,2.66602 81.139489,2.66602 56.54275,16.50517 39.90625,35.60938 23.26975,54.71357 14.666016,79.12084 14.666016,100 c 0,25.91592 10.848488,42.14603 24.623046,56.28906 13.738746,14.10627 30.437047,25.97802 41.726563,42.84375 C 114.68406,232.81416 148,275.03825 148,320 v 80 a 1.333335,1.333335 0 0 1 -1.33398,1.33398 z" />
      <glyph
         glyph-name="Greek Alpha"
         unicode=""
         id="glyph6"
         d="M 347.04102,600.89063 A 0.96666503,0.96666503 0 0 1 345.77539,600.375 L 259.80273,395.67969 207.57031,533.67578 a 0.9667617,0.9667617 0 0 1 -0.002,0.008 C 188.83003,581.79824 140.24777,604.68042 96.244141,599.87695 52.240514,595.07349 12.738683,562.39089 12.367188,500.00586 a 0.9667617,0.9667617 0 0 1 0,-0.006 v -200 c -0.725157,-32.75937 8.282367,-57.13101 22.978515,-73.73242 14.699466,-16.60516 35.049621,-25.40097 56.830078,-27.17188 43.560919,-3.54181 92.964999,20.90369 115.361329,67.15039 a 0.9667617,0.9667617 0 0 1 0.0215,0.0469 l 52.15235,124.16992 46.05078,-121.66211 a 0.9667617,0.9667617 0 0 1 0.0234,-0.0566 c 14.96167,-33.10298 27.47375,-53.79542 67.18945,-69.64258 a 0.96666503,0.96666503 0 0 1 1.25586,0.54102 0.96666503,0.96666503 0 0 1 -0.53906,1.25586 c -39.30313,15.68262 -51.2182,35.62095 -66.13475,68.62117 l -46.75781,123.5332 86.75976,206.57227 a 0.96666503,0.96666503 0 0 1 -0.51757,1.26563 z m -242.44336,-2.36915 c 40.89952,1.24743 83.91478,-21.23785 101.16796,-65.53906 L 258.7168,393.08984 205.78906,267.07227 C 183.75932,221.60032 135.05266,197.54995 92.332031,201.02344 70.969235,202.76038 51.132336,211.35266 36.794922,227.54883 22.457507,243.745 13.577457,267.58272 14.298828,299.97852 a 0.9667617,0.9667617 0 0 1 0.002,0.0215 V 499.99414 500 c 0.369168,61.5731 38.960784,93.24026 82.152344,97.95508 2.699561,0.29468 5.417895,0.48324 8.144535,0.5664 z" />
    </font>
</defs>
</svg>
